<svg width="700" height="470" viewBox="0 0 700 470" fill="none" xmlns="http://www.w3.org/2000/svg">
<path d="M276.281 184.2C276.954 186.265 277.571 188.347 278.131 190.448C278.414 191.498 278.677 192.555 278.912 193.623C279.031 194.156 279.136 194.695 279.227 195.241C279.264 195.518 279.322 195.784 279.341 196.071L279.378 196.497L279.428 196.846C279.661 197.791 280.236 198.616 281.042 199.161C281.89 199.788 282.791 200.339 283.735 200.808C284.005 200.947 284.264 201.106 284.51 201.284L284.618 201.367C284.677 201.426 284.731 201.489 284.78 201.557C284.846 201.646 284.899 201.744 284.936 201.85C284.993 201.996 285.044 202.145 285.086 202.296C285.281 202.93 285.293 203.607 285.119 204.247C285.016 204.589 284.845 204.906 284.617 205.181C284.388 205.455 284.108 205.682 283.791 205.846C283.225 206.124 282.615 206.301 281.988 206.369L282.613 205.649C282.695 207.162 282.694 208.651 282.665 210.154C282.631 211.655 282.552 213.157 282.387 214.664C282.246 216.2 281.943 217.717 281.484 219.19C281.233 219.996 280.844 220.753 280.335 221.425C280.024 221.821 279.623 222.135 279.165 222.343C278.668 222.56 278.117 222.624 277.583 222.527L277.769 222.541L270.412 222.802L270.469 221.096C272.914 221.481 275.271 222.301 277.428 223.516C279.571 224.681 281.526 226.16 283.23 227.905C283.665 228.328 284.04 228.808 284.446 229.256L285.043 229.941L285.574 230.676C285.924 231.168 286.29 231.65 286.625 232.15L287.538 233.71L287.993 234.489L288.373 235.307L289.13 236.939C289.586 238.047 289.949 239.19 290.36 240.31L290.149 240.057C293.353 242.036 296.283 244.429 298.862 247.174C301.458 249.894 303.637 252.983 305.329 256.341C306.152 258.034 306.83 259.794 307.354 261.602C307.856 263.419 308.208 265.275 308.407 267.151C308.728 270.924 308.442 274.723 307.558 278.405L307.476 277.921C310.247 281.919 312.996 285.931 315.723 289.957L323.898 302.041L323.908 302.055C323.997 302.187 324.049 302.342 324.058 302.502C324.067 302.662 324.032 302.821 323.957 302.963C320.817 308.842 317.063 314.371 312.756 319.458C308.518 324.576 303.798 329.275 298.662 333.491L296.752 335.086L294.751 336.567C293.407 337.539 292.108 338.573 290.727 339.491C287.931 341.275 285.202 343.163 282.246 344.675C276.44 347.853 270.348 350.476 264.049 352.51L264.032 352.515C263.984 352.532 263.932 352.534 263.883 352.522C263.834 352.51 263.789 352.484 263.754 352.448L258.98 347.46C258.971 347.451 258.964 347.44 258.959 347.428C258.955 347.417 258.953 347.404 258.953 347.392C258.953 347.379 258.956 347.367 258.961 347.355C258.966 347.344 258.973 347.333 258.982 347.325C259.001 347.308 259.025 347.299 259.05 347.299C259.075 347.3 259.099 347.309 259.117 347.326L264.153 352.016L263.859 351.953L268.404 350.063C269.935 349.48 271.435 348.819 272.898 348.081L277.291 345.888C278.027 345.53 278.743 345.133 279.436 344.699L281.545 343.447C284.415 341.875 287.07 339.959 289.779 338.138C291.117 337.203 292.373 336.153 293.673 335.168L295.606 333.666L297.447 332.052C298.654 330.954 299.95 329.957 301.104 328.802L304.625 325.403L307.97 321.833C309.079 320.638 310.112 319.373 311.187 318.147C315.405 313.19 319.126 307.83 322.296 302.144L322.355 303.066L314.377 290.852C311.726 286.775 309.091 282.687 306.47 278.59L306.46 278.573C306.416 278.504 306.387 278.427 306.375 278.347C306.363 278.266 306.367 278.184 306.388 278.106C307.371 274.566 307.766 270.889 307.559 267.221C307.429 265.387 307.133 263.569 306.675 261.789C306.181 260.015 305.537 258.286 304.75 256.621C303.143 253.29 301.005 250.243 298.418 247.598C295.865 244.935 292.937 242.658 289.727 240.84C289.637 240.79 289.566 240.711 289.527 240.616L289.515 240.586C289.071 239.508 288.678 238.409 288.196 237.353L287.404 235.801L287.01 235.027L286.544 234.294L285.614 232.83C285.276 232.363 284.909 231.917 284.559 231.459L284.029 230.777L283.438 230.148C283.037 229.737 282.668 229.294 282.242 228.91C280.575 227.339 278.699 226.007 276.667 224.952C274.674 223.894 272.522 223.167 270.296 222.798L270.255 222.792C270.044 222.761 269.853 222.651 269.718 222.486C269.583 222.32 269.515 222.11 269.528 221.897C269.54 221.684 269.632 221.483 269.784 221.334C269.937 221.185 270.14 221.099 270.354 221.092L277.712 220.855C277.753 220.853 277.794 220.855 277.835 220.86L277.899 220.869C278.119 220.905 278.346 220.876 278.55 220.786C278.755 220.696 278.929 220.549 279.052 220.362C279.437 219.846 279.732 219.27 279.926 218.657C280.356 217.295 280.653 215.895 280.814 214.476C281.153 211.566 281.29 208.636 281.224 205.707L281.224 205.698C281.222 205.523 281.285 205.354 281.401 205.223C281.516 205.092 281.676 205.008 281.849 204.987C282.304 204.953 282.749 204.845 283.169 204.667C283.339 204.591 283.493 204.481 283.619 204.342C283.745 204.204 283.841 204.042 283.901 203.865C284.021 203.455 284.022 203.019 283.906 202.608C283.879 202.497 283.847 202.386 283.809 202.281C283.795 202.237 283.758 202.148 283.779 202.217C283.785 202.232 283.797 202.243 283.812 202.249L283.759 202.209C283.568 202.066 283.368 201.935 283.159 201.819C282.179 201.287 281.247 200.669 280.376 199.973C279.921 199.6 279.52 199.166 279.183 198.684C278.818 198.183 278.584 197.599 278.501 196.985C278.352 194.831 278.034 192.691 277.549 190.586C277.099 188.471 276.607 186.359 276.097 184.253C276.091 184.228 276.094 184.203 276.106 184.181C276.119 184.16 276.139 184.144 276.163 184.137C276.187 184.13 276.213 184.133 276.235 184.144C276.257 184.156 276.273 184.176 276.281 184.199L276.281 184.2Z" fill="black"/>
<path d="M218.903 219.303C212.544 221.519 206.683 224.966 201.655 229.446C196.684 233.918 192.737 239.411 190.085 245.548C189.42 247.068 188.839 248.624 188.344 250.207C187.893 251.771 187.403 253.456 186.88 255.057C185.831 258.282 184.703 261.465 183.563 264.646C181.276 271.003 178.926 277.334 176.514 283.639L176.184 282.523C179.054 284.447 182.251 285.829 185.618 286.601C189.034 287.432 192.515 287.973 196.022 288.22C199.55 288.481 203.088 288.562 206.624 288.464C210.159 288.358 213.717 288.172 217.216 287.79L217.243 287.787C217.395 287.771 217.549 287.804 217.681 287.881C217.812 287.959 217.916 288.077 217.975 288.217C220.581 294.302 223.582 300.21 226.96 305.903C230.271 311.647 233.952 317.177 237.768 322.616C233.62 317.413 229.75 311.993 226.176 306.379C222.609 300.739 219.427 294.865 216.65 288.797L217.409 289.224C213.848 289.707 210.265 290.004 206.673 290.115C203.08 290.246 199.482 290.193 195.895 289.959C192.283 289.735 188.696 289.207 185.173 288.381C181.563 287.589 178.135 286.126 175.066 284.067C174.894 283.946 174.769 283.771 174.709 283.57C174.648 283.369 174.657 283.153 174.733 282.958L174.736 282.951C177.186 276.673 179.585 270.373 181.932 264.052C183.095 260.891 184.248 257.724 185.313 254.541C185.859 252.941 186.295 251.382 186.834 249.72C189.617 241.588 194.524 234.348 201.046 228.75C204.98 225.502 209.388 222.877 214.118 220.967C214.897 220.639 215.693 220.351 216.502 220.104L218.903 219.303Z" fill="black"/>
<path d="M194.206 259.927C196.819 261.625 199.373 263.417 201.84 265.336C203.075 266.293 204.279 267.295 205.431 268.367C206.634 269.422 207.677 270.647 208.528 272.003L218.144 288.034C218.274 288.252 218.312 288.513 218.251 288.759C218.189 289.005 218.032 289.216 217.815 289.347C217.598 289.478 217.337 289.517 217.091 289.456C216.845 289.395 216.633 289.239 216.501 289.022L216.476 288.978L207.693 272.474C206.95 271.148 206.018 269.937 204.927 268.879C203.853 267.773 202.713 266.718 201.536 265.706C199.185 263.675 196.728 261.756 194.206 259.927Z" fill="black"/>
<path d="M242.652 258.665C242.472 261.547 242.251 264.423 241.988 267.294C241.729 270.165 241.443 273.033 241.129 275.898C240.83 278.764 240.479 281.624 240.141 284.486C239.786 287.345 239.404 290.201 238.949 293.047L238.387 292.222C241.807 293.177 245.307 293.989 248.812 294.694C252.327 295.378 255.879 295.845 259.451 296.093C263.011 296.344 266.586 296.294 270.138 295.942C271.892 295.755 273.631 295.448 275.344 295.023C277.027 294.637 278.651 294.027 280.172 293.208L279.748 293.786C280.513 289.314 281.338 284.856 282.153 280.393C282.984 275.934 283.892 271.488 284.874 267.057C285.363 264.84 285.886 262.63 286.426 260.417C286.701 259.317 287.004 258.203 287.313 257.107C287.611 256.04 287.883 254.959 288.114 253.863C288.58 251.672 288.927 249.442 289.185 247.2C289.479 244.961 289.676 242.704 289.839 240.445C289.84 240.432 289.843 240.42 289.848 240.408C289.854 240.397 289.861 240.387 289.871 240.378C289.88 240.37 289.891 240.363 289.903 240.359C289.915 240.355 289.927 240.353 289.94 240.353C289.963 240.355 289.986 240.365 290.003 240.382C290.019 240.399 290.029 240.421 290.031 240.445C290.255 245.005 290.054 249.575 289.43 254.098C289.279 255.236 289.055 256.368 288.796 257.498C288.544 258.598 288.306 259.686 288.084 260.797L286.765 267.451C285.899 271.894 285.038 276.342 284.123 280.78L281.378 294.094L281.371 294.129C281.346 294.245 281.296 294.354 281.224 294.448C281.152 294.542 281.059 294.619 280.953 294.672C277.579 296.195 273.925 297.001 270.223 297.041C266.613 297.162 263 297.048 259.405 296.7C255.819 296.392 252.249 295.965 248.684 295.475C245.112 295.006 241.566 294.432 238.015 293.683C237.842 293.646 237.689 293.548 237.585 293.406C237.48 293.264 237.431 293.088 237.448 292.913L237.453 292.857C237.724 289.987 238.068 287.127 238.438 284.269C238.827 281.414 239.202 278.558 239.628 275.707C240.037 272.855 240.477 270.007 240.948 267.162C241.416 264.317 241.921 261.477 242.462 258.641C242.466 258.617 242.48 258.596 242.5 258.582C242.519 258.567 242.544 258.561 242.568 258.564C242.592 258.567 242.614 258.579 242.63 258.598C242.645 258.617 242.653 258.641 242.652 258.665L242.652 258.665Z" fill="black"/>
<path d="M276.571 182.289C276.571 182.289 246.683 165.721 235.232 180.222C235.232 180.222 229.901 187.462 230.081 194.295C230.26 201.127 231.948 205.29 213.312 226.554C194.676 247.818 237.384 241.96 240.745 239.768C244.105 237.576 254.754 222.57 261.303 221.609C267.851 220.647 261.292 211.222 261.292 211.222C261.292 211.222 253.827 212.339 254.004 204.051C254.18 195.764 261.375 199.387 261.375 199.387C261.375 199.387 272.671 203.954 276.571 182.289Z" fill="black"/>
<path d="M265.248 216.64C266.038 217.17 266.643 217.735 267.288 218.237C267.603 218.493 267.924 218.726 268.259 218.952C268.625 219.178 269.007 219.379 269.4 219.555C268.947 219.744 268.443 219.774 267.969 219.642C267.504 219.511 267.069 219.288 266.691 218.986C266.326 218.69 266.012 218.337 265.76 217.94C265.498 217.549 265.323 217.105 265.248 216.64Z" fill="black"/>
<path d="M262.867 221.098C264.129 220.901 265.412 220.883 266.679 221.044C267.95 221.166 269.198 221.468 270.384 221.942C269.122 222.142 267.839 222.16 266.572 221.996C265.301 221.873 264.054 221.571 262.867 221.098Z" fill="black"/>
<path d="M278.307 203.28C278.519 203.696 278.752 204.101 279.006 204.493C279.109 204.651 279.229 204.797 279.365 204.928C279.513 205.088 279.709 205.235 279.942 205.472C279.806 205.552 279.656 205.605 279.5 205.626C279.343 205.648 279.184 205.638 279.032 205.598C278.702 205.519 278.413 205.321 278.221 205.041C278.036 204.771 277.944 204.448 277.959 204.12C277.965 203.806 278.089 203.506 278.307 203.28Z" fill="black"/>
<path d="M273.341 194.47C273.901 193.985 274.615 193.715 275.355 193.706C276.101 193.653 276.838 193.888 277.414 194.363C276.755 194.545 276.075 194.646 275.391 194.663C274.702 194.699 274.011 194.634 273.341 194.47Z" fill="black"/>
<path d="M274.624 199.344C274.908 199.335 275.177 199.215 275.375 199.01C275.572 198.806 275.682 198.533 275.682 198.249C275.682 197.965 275.572 197.692 275.375 197.488C275.177 197.283 274.908 197.164 274.624 197.154C274.34 197.164 274.071 197.283 273.874 197.488C273.677 197.692 273.566 197.965 273.566 198.249C273.566 198.533 273.677 198.806 273.874 199.01C274.071 199.215 274.34 199.335 274.624 199.344Z" fill="black"/>
<path d="M277.297 209.88C278.112 209.977 278.91 210.186 279.667 210.502C280.407 210.797 281.062 211.106 281.861 211.484C281.456 211.671 281.006 211.742 280.563 211.689C280.136 211.651 279.717 211.552 279.318 211.394C278.926 211.238 278.554 211.035 278.212 210.789C277.854 210.544 277.544 210.236 277.297 209.88Z" fill="black"/>
<path d="M315.979 313.736C317.34 314.867 318.652 316.036 319.869 317.262L318.652 318.9C317.618 320.28 316.66 321.717 315.519 323.011L312.243 326.987C311.189 328.357 309.953 329.555 308.803 330.82L307.059 332.717C306.494 333.366 305.896 333.987 305.267 334.575L303.849 335.936C303.054 334.815 302.288 333.656 301.56 332.477C302.259 333.684 302.987 334.872 303.744 336.032L301.56 338.139C296.518 342.793 291.056 346.97 285.243 350.614C283.767 351.486 282.321 352.406 280.788 353.182L278.517 354.408L276.179 355.501C273.073 357 269.833 358.206 266.502 359.103C265.53 356.861 264.679 354.567 263.953 352.233C290.599 343.131 307.356 325.368 315.979 313.736Z" fill="black"/>
<path d="M323.127 302.555L327.525 306.138C325.532 308.984 323.711 311.916 321.737 314.742L320.463 316.467C319.061 315.413 317.559 314.498 315.979 313.736C318.658 310.207 321.048 306.468 323.127 302.555Z" fill="black"/>
<path d="M433.636 378.725C403.647 377.068 378.784 375.679 378.784 375.679C384.708 369.472 389.841 362.556 394.066 355.088C398.321 347.623 401.847 339.766 404.595 331.624C407.352 323.497 409.461 315.164 410.9 306.704C411.015 306.023 411.12 305.343 411.235 304.663C411.36 308.227 411.513 311.801 411.647 315.375C411.839 320.098 412.088 324.831 412.318 329.555L413.094 343.725L413.947 357.896C413.961 358.109 414.048 358.31 414.193 358.467C414.337 358.624 414.531 358.726 414.742 358.758H414.751C419.13 359.352 423.537 359.812 427.964 360.032C429.229 360.099 430.503 360.147 431.768 360.186C432.821 362.303 434.594 367.649 433.636 378.725Z" fill="black"/>
<path d="M439.921 358.365C435.964 358.432 432.01 358.353 428.06 358.126C423.949 357.896 419.839 357.532 415.748 357.005L414.771 343.62L413.669 329.459C413.276 324.745 412.893 320.031 412.452 315.317C412.088 311.485 411.743 307.652 411.369 303.82C412.564 296.327 413.144 288.748 413.104 281.16C412.778 285.414 412.308 289.649 411.647 293.865C411.034 298.071 410.287 302.268 409.434 306.426C408.562 310.594 407.614 314.733 406.492 318.824C405.4 322.934 404.183 326.997 402.785 331.001C401.424 335.025 399.92 338.992 398.234 342.882C397.438 344.846 396.509 346.762 395.628 348.688C394.679 350.585 393.778 352.502 392.763 354.37C388.787 361.899 384.106 369.033 378.784 375.679C352.254 396.47 331.281 402.582 314.935 400.982C315.108 398.711 315.175 396.441 315.251 394.18C315.253 394.067 315.212 393.957 315.136 393.873L315.098 393.825C313.191 391.851 311.259 389.897 309.301 387.961C307.337 386.036 305.357 384.132 303.361 382.251C301.378 380.344 299.337 378.515 297.315 376.646C295.275 374.807 293.224 372.977 291.145 371.185L291.097 371.147C290.982 371.046 290.836 370.989 290.684 370.986C290.531 370.982 290.383 371.032 290.264 371.127C287.38 373.436 284.505 375.765 281.727 378.227C284.745 376.435 287.677 374.509 290.589 372.565C292.391 374.395 294.23 376.186 296.07 377.978C298.072 379.865 300.036 381.782 302.067 383.631C304.079 385.499 306.117 387.342 308.18 389.159C310.192 390.941 312.227 392.701 314.283 394.438C314.475 396.613 314.657 398.798 314.935 400.982C286.364 398.194 271.887 371.865 266.502 359.103C273.375 357.868 279.975 355.429 286 351.898C292.064 348.425 297.718 344.279 302.853 339.538L304.817 337.632C306.956 340.743 309.336 343.681 311.936 346.418C315.951 350.595 320.53 354.408 325.982 356.698C328.707 357.863 331.617 358.538 334.576 358.691C337.556 358.752 340.52 358.238 343.305 357.177L345.355 356.315C346.007 355.98 346.648 355.596 347.291 355.232L348.258 354.686L349.159 354.044L350.96 352.751C352.091 351.802 353.202 350.835 354.275 349.829C355.272 348.756 356.335 347.73 357.274 346.609C358.194 345.469 359.152 344.348 360.033 343.179L362.563 339.596C364.163 337.172 365.725 334.738 367.286 332.286C370.4 327.399 373.469 322.481 376.494 317.53C382.568 307.652 388.461 297.669 394.564 287.848C397.601 282.923 400.696 278.037 404.068 273.39C405.729 271.067 407.544 268.858 409.501 266.779C410.465 265.771 411.517 264.851 412.644 264.029C413.682 263.209 414.895 262.639 416.189 262.362C416.792 262.255 417.411 262.268 418.009 262.401C418.312 262.454 418.606 262.551 418.881 262.688C419.155 262.788 419.413 262.927 419.647 263.1C420.626 263.999 421.426 265.075 422.004 266.271C423.279 268.817 424.33 271.468 425.147 274.195C426.862 279.675 428.184 285.309 429.42 290.952C431.835 302.258 433.713 313.698 435.418 325.147C437.114 336.194 438.561 347.27 439.921 358.365Z" fill="black"/>
<path d="M467.467 337.296C467.438 339.423 467.381 341.55 467.314 343.677C467.16 347.759 467.007 351.841 466.825 355.913C462.667 356.622 458.48 357.187 454.283 357.58C449.933 358.011 445.555 358.269 441.186 358.346C440.774 358.356 440.362 358.356 439.96 358.365C438.07 335.656 435.032 313.057 430.857 290.655C429.774 284.935 428.396 279.274 426.728 273.697C425.89 270.87 424.813 268.12 423.509 265.476C422.827 264.058 421.873 262.789 420.701 261.739C420.357 261.474 419.977 261.261 419.571 261.107C419.198 260.92 418.802 260.785 418.392 260.705C417.574 260.523 416.727 260.503 415.901 260.647C414.346 260.952 412.883 261.614 411.628 262.583C410.408 263.463 409.27 264.45 408.227 265.533C406.195 267.659 404.313 269.923 402.593 272.307C399.134 277.012 396.001 281.908 392.935 286.833C386.861 296.73 381.026 306.732 375.009 316.63C372.01 321.574 368.97 326.498 365.888 331.404L361.222 338.724L358.798 342.269C357.954 343.428 357.035 344.53 356.163 345.661C355.253 346.763 354.237 347.769 353.288 348.832C352.263 349.829 351.2 350.777 350.127 351.707L348.412 352.971L347.559 353.604L346.639 354.14C346.026 354.495 345.422 354.868 344.799 355.204L342.864 356.056C340.236 357.099 337.432 357.629 334.605 357.618C331.766 357.51 328.968 356.907 326.336 355.836C321 353.757 316.372 350.106 312.3 346.063C310.257 344.02 308.34 341.854 306.561 339.577C306.015 338.887 305.488 338.187 304.961 337.488L306.599 335.888C307.231 335.286 307.833 334.653 308.401 333.991L310.144 332.036C312.471 329.443 314.662 326.731 316.707 323.911C317.8 322.561 318.72 321.075 319.678 319.629L320.665 318.105C321.42 318.897 322.124 319.735 322.772 320.616C323.713 321.863 324.48 323.233 325.053 324.688C325.644 326.106 325.982 327.617 326.049 329.153C326.13 332.276 325.397 335.366 323.922 338.12C322.432 340.994 320.577 343.664 318.403 346.063C321.154 344.155 323.478 341.695 325.225 338.839C327.102 335.925 328.054 332.512 327.956 329.047C327.717 325.562 326.301 322.262 323.941 319.686C323.138 318.76 322.256 317.904 321.306 317.128L322.523 315.26C323.414 313.775 324.21 312.223 325.053 310.709C325.896 309.195 326.72 307.672 327.525 306.139L334.682 311.973C332.383 313.978 330.535 316.447 329.259 319.217C330.421 318.235 331.46 317.115 332.354 315.883C333.281 314.676 334.063 313.364 334.682 311.973C392.226 246.084 413.132 228.914 434.728 236.637C456.171 244.302 467.218 329.775 467.362 330.915V330.925C467.534 333.052 467.467 335.169 467.467 337.296Z" fill="black"/>
<path d="M536.432 384.148C534.401 384.196 502.927 382.529 468.626 380.651C457.244 370.601 457.713 361.393 458.154 358.701C461.297 358.26 464.427 357.717 467.544 357.072L467.572 357.062C467.708 357.032 467.83 356.957 467.919 356.849C468.007 356.742 468.057 356.608 468.061 356.468C468.099 352.205 468.118 347.951 468.032 343.687C467.994 341.55 467.946 339.423 467.869 337.287C467.81 335.159 467.641 333.035 467.361 330.925L535.455 347.012C538.808 354.629 536.432 384.148 536.432 384.148Z" fill="black"/>
<path d="M468.658 380.614C470.444 382.055 472.311 383.378 474.221 384.632C476.136 385.88 478.123 387.011 480.125 388.107C482.131 389.2 484.195 390.182 486.268 391.143C488.339 392.11 490.444 393.003 492.549 393.902L492.587 393.918C492.638 393.94 492.682 393.977 492.713 394.023C492.744 394.07 492.761 394.124 492.762 394.18C492.722 394.908 492.475 395.609 492.049 396.2C491.623 396.791 491.036 397.247 490.358 397.515C489.108 398.05 487.773 398.356 486.415 398.417C485.08 398.503 483.74 398.482 482.408 398.353C481.077 398.265 479.755 398.086 478.439 397.877C473.182 396.992 468 395.702 462.942 394.018C457.877 392.366 452.889 390.493 447.981 388.434C446.743 387.932 445.534 387.388 444.312 386.97C443.08 386.543 441.813 386.224 440.526 386.015C439.235 385.806 437.929 385.704 436.622 385.711C435.321 385.717 433.987 385.84 432.662 385.912L432.649 385.913C432.615 385.914 432.581 385.91 432.549 385.898C432.517 385.887 432.488 385.87 432.462 385.847C432.437 385.824 432.417 385.797 432.402 385.766C432.387 385.736 432.379 385.702 432.377 385.668C432.376 385.645 432.378 385.622 432.383 385.599C432.902 383.328 433.304 381.032 433.588 378.719C433.59 378.707 433.596 378.696 433.605 378.688C433.615 378.68 433.627 378.676 433.64 378.677C433.652 378.678 433.664 378.684 433.672 378.693C433.68 378.703 433.684 378.715 433.684 378.727C433.57 381.067 433.307 383.397 432.897 385.703L432.617 385.389C433.941 385.257 435.25 385.072 436.606 385.003C437.956 384.953 439.308 385.019 440.647 385.199C441.989 385.378 443.314 385.672 444.606 386.079C445.912 386.485 447.124 387.049 448.353 387.529C453.275 389.51 458.209 391.46 463.218 393.193C468.197 395.018 473.303 396.47 478.496 397.539C481.091 398.06 483.744 398.237 486.385 398.063C487.687 397.984 488.961 397.647 490.132 397.072C490.687 396.784 491.172 396.378 491.554 395.883C491.913 395.416 492.102 394.841 492.09 394.252L492.303 394.531C487.97 392.961 483.774 391.035 479.758 388.773C477.745 387.65 475.796 386.415 473.921 385.073C472.042 383.741 470.262 382.275 468.595 380.685C468.586 380.677 468.58 380.665 468.58 380.653C468.579 380.64 468.584 380.628 468.592 380.619C468.6 380.61 468.611 380.604 468.624 380.603C468.636 380.602 468.648 380.606 468.658 380.614L468.658 380.614Z" fill="black"/>
<path d="M456.659 415.824L429.066 414.607L434.192 406.3C435.974 406.903 437.794 407.411 439.624 407.833C441.454 408.264 443.294 408.638 445.162 408.925C447.03 409.222 448.915 409.404 450.805 409.471C452.657 409.574 454.515 409.442 456.334 409.078C456.107 410.126 456.017 411.198 456.065 412.269C456.084 413.477 456.285 414.675 456.659 415.824Z" fill="black"/>
<path d="M463.749 405.955L463.491 409.356L456.659 415.824C456.955 414.65 457.078 413.44 457.023 412.231C456.994 411.15 456.826 410.078 456.525 409.04L456.554 409.03L460.166 407.545C461.364 407.009 462.571 406.511 463.749 405.955Z" fill="black"/>
<path d="M525.251 415.325C517.308 420.777 491.171 416.111 482.318 409.634C479.663 407.733 476.634 406.422 473.431 405.787C470.229 405.153 466.928 405.21 463.749 405.955C462.494 406.3 461.249 406.712 460.003 407.095L456.334 408.312C454.516 408.577 452.676 408.651 450.844 408.532C448.985 408.446 447.133 408.277 445.287 408.024C443.437 407.795 441.588 407.533 439.739 407.239L434.192 406.3C429.162 398.137 432.639 385.652 432.639 385.652L435.217 385.432C438.94 385.114 442.684 385.702 446.13 387.147C493.815 407.114 492.426 394.218 492.426 394.218C523.795 404.048 533.184 409.874 525.251 415.325Z" fill="black"/>
<path d="M536.743 355.343C538.615 355.766 540.555 355.79 542.437 355.414C542.907 355.344 543.371 355.24 543.826 355.103C544.282 354.971 544.75 354.889 545.193 354.717L546.516 354.197L547.177 353.942L547.807 353.611C551.188 351.856 554.221 349.499 556.755 346.655C557.421 345.97 558.046 345.245 558.626 344.485C559.226 343.74 559.868 343.028 560.436 342.256L562.105 339.905C562.65 339.113 563.273 338.371 563.75 337.53L565.281 335.069C565.78 334.241 566.339 333.446 566.766 332.575C567.673 330.863 568.597 329.154 569.474 327.421L569.496 327.377C569.521 327.328 569.56 327.287 569.608 327.259C569.656 327.231 569.711 327.217 569.766 327.22C570.408 327.292 571.017 327.541 571.525 327.94C572.033 328.339 572.42 328.872 572.641 329.479C572.869 330.037 573.031 330.62 573.124 331.216C573.245 331.797 573.307 332.389 573.308 332.983C573.328 335.331 573.099 337.674 572.624 339.973C572.141 342.257 571.612 344.539 570.924 346.767C570.325 349.029 569.497 351.207 568.725 353.409C567.12 357.785 565.258 362.056 563.34 366.294L562.629 367.889C562.396 368.409 562.168 368.894 561.975 369.415C561.58 370.442 561.274 371.502 561.062 372.583C560.849 373.664 560.72 374.759 560.675 375.86C560.643 376.938 560.706 378.121 560.726 379.277C560.732 379.537 560.633 379.788 560.453 379.975C560.273 380.163 560.026 380.271 559.766 380.276C559.684 380.277 559.601 380.268 559.52 380.25L556.3 379.486C555.214 379.302 554.134 379.058 553.04 378.922C550.857 378.604 548.653 378.439 546.446 378.429C544.235 378.422 542.027 378.62 539.852 379.022C537.659 379.388 535.528 380.062 533.523 381.024L533.514 381.029C533.493 381.04 533.468 381.042 533.444 381.035C533.421 381.028 533.401 381.012 533.389 380.991C533.377 380.97 533.373 380.946 533.378 380.922C533.384 380.898 533.398 380.878 533.418 380.864C535.345 379.648 537.449 378.739 539.656 378.17C541.866 377.598 544.124 377.234 546.401 377.082C547.541 377.005 548.684 376.984 549.826 377.022C550.971 377.018 552.106 377.136 553.246 377.226C554.385 377.325 555.508 377.535 556.641 377.686C557.762 377.897 558.879 378.133 559.996 378.372L558.79 379.345C558.748 378.183 558.66 377.051 558.67 375.81C558.686 374.592 558.814 373.378 559.051 372.183C559.289 370.988 559.631 369.816 560.072 368.681C560.286 368.115 560.543 367.547 560.798 367.016L561.541 365.451C562.519 363.36 563.553 361.29 564.486 359.179L565.87 356.007C566.329 354.948 566.829 353.904 567.238 352.828C569.058 348.593 570.588 344.239 571.817 339.797C572.414 337.583 572.716 335.3 572.713 333.007C572.719 332.441 572.667 331.877 572.556 331.322C572.47 330.773 572.316 330.236 572.098 329.724C571.873 329.24 571.554 328.804 571.16 328.444C570.785 328.112 570.306 327.921 569.805 327.902L570.097 327.701C569.267 329.469 568.484 331.262 567.683 333.051C567.311 333.96 566.805 334.803 566.355 335.675L564.968 338.276C564.507 339.147 563.995 339.989 563.435 340.8L561.801 343.269C561.221 344.068 560.563 344.814 559.947 345.589C559.34 346.373 558.681 347.116 557.975 347.812L555.853 349.907C555.096 350.554 554.29 351.149 553.512 351.77C551.91 352.97 550.17 353.974 548.33 354.76L547.647 355.07L546.931 355.301L545.496 355.744C545.018 355.889 544.513 355.942 544.025 356.045C543.538 356.155 543.041 356.22 542.541 356.24C540.556 356.455 538.548 356.209 536.673 355.521C536.651 355.512 536.633 355.495 536.622 355.473C536.612 355.451 536.61 355.427 536.617 355.404C536.625 355.381 536.64 355.361 536.661 355.349C536.682 355.337 536.707 355.334 536.73 355.339L536.743 355.343Z" fill="black"/>
<path d="M583.964 360.099C585.022 360.13 586.078 359.984 587.088 359.668L584.846 383.669L577.832 378.84H577.823C578.437 377.317 578.971 375.763 579.423 374.184C579.892 372.612 580.304 371.022 580.63 369.403C580.974 367.788 581.218 366.152 581.358 364.507C581.524 362.905 581.489 361.29 581.253 359.697C582.134 359.953 583.046 360.089 583.964 360.099Z" fill="black"/>
<path d="M581.741 353.441L587.088 359.668C585.19 359.04 583.151 358.971 581.214 359.467V359.458L580.046 356.238C579.624 355.184 579.241 354.111 578.79 353.067L581.741 353.441Z" fill="black"/>
<path d="M578.848 374.04L577.823 378.84C570.484 382.884 559.762 379.31 559.762 379.31L559.676 377.058C559.56 373.797 560.233 370.556 561.64 367.611C581.08 326.91 569.784 327.562 569.784 327.562C579.701 300.639 585.171 292.706 589.588 299.853C593.996 307.01 588.822 329.593 582.786 337.038C581.015 339.27 579.742 341.855 579.053 344.62C578.364 347.385 578.274 350.265 578.79 353.067C579.02 354.178 579.327 355.28 579.586 356.392L580.477 359.639C580.625 361.231 580.606 362.833 580.419 364.421C580.266 366.03 580.036 367.64 579.749 369.24C579.471 370.84 579.174 372.44 578.848 374.04Z" fill="black"/>
<path d="M179.082 285.284C177.586 293 176.002 300.698 174.194 308.353C173.742 310.267 173.282 312.18 172.785 314.088C172.321 316.037 171.741 317.956 171.046 319.835C169.321 323.399 167.64 326.902 166.048 330.494C162.832 337.643 159.939 344.93 157.193 352.262C156.516 354.099 155.862 355.944 155.23 357.796C154.568 359.638 154.057 361.547 153.336 363.377L149.143 374.409L149.135 374.431C149.098 374.528 149.036 374.613 148.955 374.679C148.874 374.744 148.777 374.786 148.674 374.802C146.88 375.078 145.071 375.255 143.257 375.332C141.406 375.493 139.542 375.288 137.77 374.729C136.12 374.081 134.428 373.545 132.706 373.123C131.924 372.906 131.091 372.949 130.335 373.247C130.185 373.336 130.054 373.455 129.95 373.596C129.847 373.737 129.773 373.897 129.732 374.067C129.657 374.459 129.658 374.862 129.736 375.253C129.913 376.097 130.21 376.911 130.618 377.67C130.72 377.863 130.823 378.055 130.933 378.243L131.101 378.517L131.169 378.621C131.173 378.626 131.166 378.621 131.177 378.636C131.451 378.745 131.026 379.369 131.067 379.184L131.036 379.196L130.979 379.211L130.876 379.23L129.527 379.392C127.749 379.593 125.977 379.817 124.214 380.101C122.455 380.374 120.713 380.754 118.999 381.238C118.153 381.474 117.327 381.779 116.529 382.15C115.782 382.514 114.948 383.034 114.824 383.696C114.812 383.76 114.782 383.819 114.737 383.866C114.693 383.913 114.636 383.946 114.573 383.962C113.808 384.15 113.059 384.398 112.332 384.702C111.614 384.987 110.941 385.376 110.337 385.858C110.051 386.05 109.822 386.315 109.674 386.626C109.526 386.937 109.465 387.282 109.497 387.624C109.7 388.325 110.124 388.942 110.706 389.383C110.767 389.438 110.809 389.511 110.825 389.592C110.841 389.673 110.831 389.756 110.795 389.831L110.787 389.847C110.408 390.571 110.248 391.39 110.328 392.203C110.404 392.567 110.59 392.899 110.86 393.154C111.13 393.41 111.472 393.577 111.839 393.633C113.567 393.829 115.316 393.735 117.013 393.354C120.559 392.835 124.05 391.988 127.718 391.658C128.645 391.574 129.577 391.558 130.506 391.609C131.462 391.666 132.358 391.825 133.238 391.944C135.011 392.197 136.783 392.42 138.56 392.594C142.104 392.956 145.668 393.073 149.228 392.944C152.755 392.842 156.257 392.321 159.661 391.393C160.492 391.147 161.323 390.836 162.118 390.551C162.846 390.246 163.514 389.811 164.088 389.268C164.663 388.721 165.141 388.08 165.502 387.373C165.858 386.624 166.12 385.833 166.282 385.02C168.078 378.009 170.315 371.118 172.98 364.39C175.611 357.653 178.598 351.061 181.93 344.642C185.305 338.245 189.049 332.051 193.145 326.09C197.191 320.156 201.203 314.194 204.892 308.035C206.719 304.948 208.517 301.838 210.122 298.632C210.933 297.033 211.678 295.403 212.356 293.744C212.674 292.908 212.989 292.07 213.243 291.213C213.522 290.374 213.68 289.5 213.712 288.616L213.712 288.59C213.711 288.565 213.72 288.541 213.737 288.523C213.754 288.505 213.777 288.494 213.802 288.493C213.827 288.492 213.851 288.501 213.869 288.517C213.888 288.534 213.899 288.556 213.901 288.581C213.913 289.498 213.79 290.412 213.535 291.292C213.314 292.172 213.03 293.03 212.744 293.889C212.129 295.588 211.446 297.26 210.697 298.905C209.961 300.555 209.154 302.169 208.347 303.784C207.499 305.375 206.664 306.977 205.771 308.543C202.23 314.829 198.419 320.956 194.432 326.961C190.483 332.939 186.878 339.136 183.634 345.524C180.359 351.894 177.425 358.433 174.844 365.115C173.541 368.449 172.351 371.827 171.229 375.226C170.095 378.62 169.054 382.046 168.139 385.5C167.933 386.449 167.612 387.369 167.184 388.241C166.716 389.135 166.1 389.944 165.362 390.632C164.618 391.321 163.757 391.87 162.819 392.252C161.92 392.569 161.059 392.879 160.164 393.135C156.612 394.076 152.958 394.581 149.284 394.64C145.648 394.71 142.012 394.529 138.401 394.098C136.601 393.888 134.805 393.639 133.022 393.342C132.124 393.195 131.248 393.019 130.409 392.95C129.543 392.88 128.672 392.873 127.805 392.93C124.291 393.154 120.738 393.899 117.155 394.347C116.254 394.459 115.374 394.584 114.448 394.65C113.499 394.75 112.54 394.694 111.61 394.484C111.372 394.402 111.135 394.303 110.9 394.21C110.67 394.077 110.452 393.925 110.25 393.753C109.861 393.372 109.605 392.875 109.518 392.337C109.427 391.348 109.636 390.354 110.119 389.486L110.2 389.95C109.505 389.385 109.012 388.61 108.794 387.742C108.716 387.265 108.798 386.775 109.027 386.35C109.245 385.957 109.538 385.61 109.889 385.329C110.551 384.807 111.287 384.386 112.073 384.082C112.838 383.768 113.626 383.515 114.43 383.325L114.18 383.59C114.302 383.072 114.61 382.616 115.045 382.31C115.42 382.022 115.826 381.777 116.256 381.581C117.088 381.202 117.949 380.892 118.831 380.654C120.574 380.158 122.347 379.837 124.117 379.52C125.889 379.214 127.67 378.968 129.45 378.747L130.768 378.575L130.831 378.563C130.825 378.564 130.82 378.566 130.814 378.568L130.803 378.573C130.851 378.387 130.429 379.003 130.708 379.107L130.665 379.056C130.621 379 130.58 378.943 130.542 378.883L130.356 378.586C130.237 378.388 130.126 378.187 130.017 377.985C129.567 377.168 129.238 376.291 129.039 375.38C128.938 374.891 128.934 374.388 129.028 373.898C129.09 373.632 129.204 373.381 129.364 373.16C129.524 372.939 129.726 372.752 129.96 372.611C130.409 372.361 130.916 372.235 131.43 372.245C131.903 372.238 132.376 372.278 132.841 372.362C134.613 372.74 136.357 373.238 138.062 373.853C139.732 374.325 141.479 374.463 143.202 374.259C144.967 374.134 146.723 373.913 148.463 373.598L147.995 373.99L151.878 362.882C153.108 359.166 154.263 355.393 155.627 351.693C158.261 344.262 161.366 337.015 164.639 329.856C166.275 326.286 168.011 322.711 169.774 319.239C170.48 317.448 171.082 315.618 171.578 313.758C172.12 311.878 172.628 309.983 173.128 308.087C175.101 300.492 177.004 292.869 178.894 285.243C178.9 285.218 178.915 285.197 178.937 285.184C178.958 285.171 178.984 285.166 179.008 285.171C179.033 285.177 179.054 285.192 179.068 285.213C179.081 285.233 179.086 285.259 179.082 285.284L179.082 285.284Z" fill="black"/>
<path d="M139.75 378.815L130.945 379.35C130.883 379.354 130.819 379.346 130.76 379.325C130.7 379.305 130.645 379.273 130.598 379.231C130.551 379.189 130.512 379.138 130.485 379.082C130.457 379.025 130.441 378.964 130.437 378.901C130.433 378.838 130.442 378.775 130.462 378.715C130.483 378.655 130.515 378.601 130.557 378.553C130.599 378.506 130.649 378.468 130.706 378.44C130.763 378.413 130.824 378.396 130.887 378.393C130.905 378.392 130.922 378.391 130.939 378.392L139.75 378.815Z" fill="black"/>
<path d="M110.314 389.208C113.212 388.454 116.151 387.867 119.117 387.45C122.071 387.006 125.061 386.856 128.045 387.001C125.072 387.015 122.107 387.324 119.195 387.923C116.288 388.492 113.416 389.227 110.592 390.125L110.581 390.128C110.46 390.167 110.329 390.155 110.216 390.097C110.103 390.039 110.018 389.938 109.98 389.817C109.941 389.696 109.952 389.565 110.01 389.452C110.068 389.339 110.168 389.254 110.289 389.215L110.314 389.208Z" fill="black"/>
<path d="M114.441 383.168L124.417 382.374L114.563 384.118C114.501 384.129 114.437 384.128 114.375 384.115C114.313 384.101 114.255 384.076 114.203 384.04C114.151 384.004 114.107 383.958 114.073 383.905C114.039 383.851 114.016 383.792 114.005 383.73C113.994 383.668 113.996 383.604 114.009 383.542C114.023 383.481 114.049 383.422 114.085 383.371C114.121 383.319 114.167 383.275 114.221 383.241C114.274 383.207 114.333 383.184 114.396 383.174C114.41 383.171 114.426 383.169 114.441 383.168Z" fill="black"/>
<path d="M149.01 374.388L146.753 378.455L148.128 374.012C148.147 373.951 148.177 373.895 148.218 373.846C148.258 373.797 148.308 373.757 148.364 373.728C148.42 373.698 148.481 373.68 148.544 373.674C148.607 373.668 148.671 373.675 148.731 373.693C148.792 373.712 148.848 373.743 148.896 373.783C148.945 373.824 148.985 373.873 149.015 373.929C149.044 373.985 149.062 374.047 149.068 374.11C149.074 374.173 149.067 374.236 149.048 374.297C149.039 374.328 149.025 374.359 149.01 374.388Z" fill="black"/>
<path d="M241.908 293.784C241.43 305.158 239.863 316.461 237.227 327.536C235.855 333.052 234.244 338.502 232.871 343.98C231.47 349.436 230.53 355.001 230.061 360.615C229.844 363.425 229.696 366.227 229.587 369.068C229.443 371.91 229.434 374.723 229.002 377.657C228.889 378.432 228.671 379.188 228.355 379.905C227.997 380.669 227.451 381.329 226.769 381.824C225.531 382.621 224.222 383.302 222.859 383.856C221.565 384.439 220.35 385.071 219.033 385.703C217.731 386.315 216.412 386.871 215.087 387.402C209.781 389.505 204.374 391.252 198.98 393.014C196.29 393.899 193.567 394.741 190.962 395.783C190.646 395.91 190.337 396.053 190.036 396.211C189.904 396.275 189.784 396.36 189.68 396.462C189.558 396.581 189.44 396.704 189.325 396.83C188.863 397.329 188.468 397.885 188.148 398.485C187.822 399.036 187.68 399.677 187.745 400.315C187.814 400.612 187.953 400.889 188.152 401.12C188.35 401.352 188.601 401.533 188.885 401.647C188.922 401.665 188.956 401.691 188.984 401.722C189.012 401.753 189.033 401.79 189.047 401.83C189.061 401.869 189.067 401.911 189.064 401.953C189.062 401.995 189.051 402.036 189.033 402.074L189.025 402.09L189.021 402.098C188.702 402.665 188.46 403.271 188.299 403.901C188.122 404.498 188.124 405.135 188.306 405.731C188.418 406.007 188.592 406.253 188.816 406.45C189.039 406.646 189.305 406.789 189.592 406.866C190.212 407.054 190.861 407.131 191.508 407.092C191.559 407.091 191.608 407.103 191.653 407.127C191.698 407.15 191.735 407.185 191.762 407.228C191.789 407.27 191.805 407.319 191.808 407.369C191.81 407.42 191.8 407.47 191.777 407.515L191.773 407.524C191.359 408.314 191.08 409.167 190.949 410.049C190.848 410.444 190.866 410.86 191.002 411.245C191.137 411.629 191.384 411.965 191.71 412.21C192.487 412.583 193.361 412.706 194.211 412.562C195.112 412.454 196.002 412.266 196.869 412C198.618 411.515 200.312 410.703 202.033 410.033L207.167 407.911C207.246 407.878 207.334 407.871 207.418 407.892C207.501 407.913 207.576 407.961 207.63 408.028C207.685 408.094 207.716 408.177 207.72 408.263C207.724 408.349 207.7 408.434 207.652 408.505L207.643 408.518C207.092 409.321 206.599 410.163 206.169 411.037C205.729 411.873 205.43 412.777 205.284 413.711C205.225 414.108 205.287 414.514 205.461 414.875C205.564 415.029 205.697 415.159 205.852 415.258C206.007 415.357 206.181 415.423 206.363 415.452C207.265 415.596 208.189 415.52 209.055 415.231C210.912 414.623 212.704 413.831 214.404 412.867C216.138 411.927 217.84 410.91 219.526 409.864C222.908 407.776 226.191 405.55 229.687 403.522C230.585 402.986 231.534 402.541 232.52 402.193C233.567 401.805 234.686 401.655 235.798 401.754C237.896 402.138 239.874 403.01 241.573 404.299C244.871 406.487 248.204 408.691 251.834 409.772C253.495 410.391 255.331 410.343 256.957 409.638C257.316 409.443 257.646 409.198 257.937 408.911C258.232 408.625 258.488 408.302 258.699 407.949C258.879 407.693 258.963 407.381 258.936 407.069C258.909 406.757 258.772 406.464 258.551 406.243C257.952 405.591 257.254 405.039 256.482 404.608C255.667 404.107 254.796 403.636 253.919 403.134C253.004 402.631 252.126 402.063 251.292 401.435C250.375 400.747 249.628 399.859 249.108 398.838C248.274 396.897 247.78 394.826 247.649 392.716C247.407 390.785 247.163 388.775 246.135 387.683L246.129 387.677C246.008 387.549 245.924 387.391 245.884 387.22C245.845 387.049 245.851 386.87 245.902 386.702L252.955 363.867L260.186 341.087C262.589 333.491 265.08 325.923 267.561 318.352C270.041 310.78 272.615 303.238 275.282 295.726C275.29 295.702 275.308 295.683 275.331 295.672C275.354 295.661 275.38 295.66 275.404 295.668C275.428 295.677 275.447 295.695 275.458 295.717C275.469 295.74 275.47 295.766 275.463 295.789C273.036 303.374 270.844 311.035 268.523 318.654L261.663 341.545L254.787 364.431L247.812 387.286L247.58 386.305C248.356 387.186 248.891 388.253 249.135 389.402C249.367 390.412 249.539 391.435 249.65 392.466C249.767 394.34 250.196 396.181 250.919 397.914C251.298 398.681 251.851 399.347 252.536 399.859C253.29 400.434 254.083 400.955 254.911 401.418C255.758 401.913 256.636 402.398 257.514 402.946C258.477 403.501 259.34 404.212 260.068 405.051C260.507 405.583 260.777 406.233 260.845 406.919C260.885 407.611 260.713 408.298 260.355 408.89C260.054 409.393 259.687 409.854 259.263 410.259C258.841 410.669 258.363 411.017 257.844 411.293C256.816 411.824 255.67 412.084 254.514 412.048C253.432 412.024 252.36 411.848 251.327 411.526C247.296 410.276 243.914 407.949 240.617 405.728C239.154 404.57 237.443 403.765 235.618 403.374C234.739 403.286 233.851 403.396 233.02 403.697C232.122 404 231.257 404.392 230.436 404.867C227.011 406.787 223.659 408.985 220.208 410.993C218.485 412.007 216.742 412.996 214.952 413.913C213.161 414.873 211.278 415.652 209.331 416.237C208.292 416.556 207.191 416.614 206.125 416.406C205.817 416.341 205.526 416.214 205.269 416.032C205.013 415.85 204.796 415.617 204.633 415.348C204.367 414.809 204.273 414.201 204.367 413.608C204.542 412.571 204.89 411.572 205.397 410.651C205.865 409.746 206.398 408.876 206.991 408.048L207.467 408.656L202.289 410.693C200.552 411.353 198.885 412.144 197.052 412.641C196.145 412.911 195.215 413.1 194.274 413.204C193.282 413.36 192.266 413.197 191.374 412.737C190.914 412.448 190.578 412 190.431 411.478C190.301 410.987 190.273 410.476 190.349 409.974C190.495 409.019 190.803 408.096 191.259 407.245L191.523 407.677C190.809 407.709 190.093 407.621 189.407 407.418C189.036 407.316 188.693 407.13 188.404 406.875C188.116 406.62 187.89 406.302 187.743 405.946C187.51 405.237 187.493 404.475 187.693 403.756C187.862 403.064 188.121 402.397 188.465 401.774L188.601 402.224C188.225 402.068 187.892 401.824 187.63 401.513C187.367 401.202 187.183 400.833 187.092 400.436C186.991 399.654 187.148 398.86 187.538 398.174C187.879 397.517 188.303 396.906 188.8 396.357C188.923 396.22 189.049 396.086 189.18 395.955C189.329 395.809 189.498 395.685 189.683 395.587C190.007 395.412 190.341 395.253 190.681 395.112C193.34 394.035 196.025 393.142 198.697 392.178C204.043 390.285 209.395 388.401 214.59 386.198C215.885 385.642 217.168 385.064 218.418 384.439C219.644 383.814 220.932 383.107 222.211 382.495C223.46 381.943 224.664 381.295 225.813 380.556C226.285 380.215 226.66 379.757 226.902 379.227C227.149 378.64 227.318 378.023 227.403 377.392C227.781 374.706 227.785 371.826 227.903 369.005C227.985 366.176 228.109 363.309 228.376 360.466C228.906 354.771 229.914 349.131 231.388 343.604C232.823 338.087 234.468 332.663 235.993 327.208C237.46 321.747 238.638 316.213 239.522 310.628C240.463 305.043 241.174 299.416 241.716 293.772C241.718 293.747 241.73 293.723 241.749 293.706C241.768 293.69 241.793 293.681 241.819 293.683C241.843 293.685 241.866 293.697 241.883 293.716C241.899 293.735 241.908 293.759 241.908 293.784Z" fill="black"/>
<path d="M188.586 401.606L204.499 394.465L188.899 402.265C188.856 402.287 188.81 402.3 188.762 402.303C188.714 402.307 188.666 402.301 188.62 402.286C188.575 402.271 188.532 402.247 188.496 402.215C188.46 402.184 188.43 402.146 188.409 402.103C188.387 402.06 188.374 402.013 188.371 401.965C188.367 401.917 188.374 401.869 188.389 401.823C188.404 401.778 188.428 401.736 188.46 401.699C188.491 401.663 188.53 401.634 188.573 401.612L188.586 401.606Z" fill="black"/>
<path d="M191.333 407.068L210.856 396.225L191.698 407.701C191.615 407.75 191.516 407.765 191.422 407.741C191.329 407.717 191.248 407.658 191.198 407.575C191.149 407.492 191.134 407.392 191.157 407.299C191.181 407.205 191.24 407.124 191.323 407.074L191.333 407.068Z" fill="black"/>
<path d="M207.069 408.015L217.928 398.493L207.565 408.552C207.495 408.619 207.402 408.656 207.305 408.655C207.208 408.653 207.116 408.613 207.048 408.544C206.981 408.474 206.944 408.381 206.945 408.284C206.947 408.187 206.986 408.095 207.056 408.027L207.069 408.015Z" fill="black"/>
<path d="M453.044 214.055C454.024 211.964 455.766 210.328 457.913 209.48C460.081 208.684 462.413 208.441 464.698 208.773C469.208 209.357 473.574 210.588 477.975 211.448C479.064 211.677 480.164 211.852 481.27 211.971C482.344 212.119 483.435 212.082 484.496 211.861C484.743 211.789 484.986 211.703 485.223 211.605C485.453 211.499 485.643 211.337 485.859 211.211C486.104 211.045 486.353 210.847 486.614 210.695C486.885 210.554 487.165 210.433 487.453 210.333C488.592 210.009 489.788 209.941 490.956 210.136C493.196 210.525 495.4 211.103 497.543 211.864L503.946 214.055C501.755 213.513 499.594 212.858 497.42 212.263C495.285 211.591 493.098 211.097 490.881 210.787C489.812 210.652 488.726 210.735 487.689 211.031C487.446 211.119 487.21 211.224 486.981 211.344C486.76 211.479 486.568 211.639 486.347 211.788C486.094 211.974 485.83 212.143 485.556 212.294C485.275 212.417 484.987 212.523 484.694 212.61C483.547 212.869 482.363 212.927 481.196 212.782C480.059 212.674 478.929 212.507 477.809 212.283C473.375 211.341 469.031 210.132 464.61 209.419C462.423 209.025 460.174 209.179 458.062 209.867C455.928 210.594 454.14 212.086 453.044 214.055Z" fill="black"/>
<path d="M150.174 142.828C151.154 140.737 152.896 139.1 155.043 138.253C157.211 137.457 159.542 137.214 161.827 137.546C166.338 138.13 170.704 139.36 175.104 140.221C176.193 140.45 177.293 140.625 178.4 140.744C179.474 140.892 180.565 140.855 181.626 140.634C181.873 140.562 182.115 140.476 182.353 140.378C182.583 140.272 182.772 140.11 182.989 139.984C183.234 139.817 183.482 139.62 183.744 139.467C184.015 139.327 184.295 139.206 184.583 139.106C185.722 138.781 186.918 138.714 188.085 138.91C190.326 139.298 192.529 139.876 194.672 140.637L201.076 142.828C198.885 142.286 196.723 141.63 194.55 141.036C192.415 140.364 190.228 139.87 188.011 139.56C186.941 139.425 185.856 139.508 184.819 139.804C184.576 139.892 184.339 139.997 184.111 140.117C183.89 140.252 183.697 140.412 183.476 140.561C183.224 140.747 182.96 140.916 182.686 141.067C182.405 141.19 182.117 141.295 181.824 141.383C180.677 141.642 179.493 141.7 178.326 141.555C177.189 141.447 176.059 141.28 174.939 141.056C170.505 140.114 166.161 138.904 161.739 138.192C159.553 137.798 157.304 137.952 155.192 138.64C153.058 139.367 151.27 140.859 150.174 142.828Z" fill="black"/>
<path d="M109.895 283.728C110.875 281.638 112.617 280.001 114.764 279.153C116.932 278.357 119.264 278.114 121.549 278.446C126.059 279.03 130.425 280.261 134.826 281.121C135.915 281.351 137.015 281.525 138.121 281.645C139.195 281.792 140.286 281.755 141.348 281.534C141.594 281.462 141.837 281.376 142.074 281.278C142.304 281.173 142.494 281.01 142.71 280.884C142.955 280.718 143.204 280.52 143.465 280.368C143.736 280.227 144.016 280.107 144.304 280.007C145.443 279.682 146.639 279.614 147.807 279.81C150.047 280.198 152.251 280.776 154.394 281.537L160.797 283.728C158.606 283.186 156.445 282.531 154.271 281.936C152.136 281.264 149.949 280.77 147.732 280.461C146.663 280.326 145.577 280.409 144.54 280.704C144.297 280.792 144.061 280.897 143.832 281.017C143.611 281.152 143.419 281.312 143.198 281.461C142.945 281.647 142.681 281.816 142.407 281.967C142.126 282.09 141.839 282.196 141.545 282.283C140.398 282.542 139.215 282.6 138.048 282.455C136.911 282.347 135.78 282.18 134.66 281.956C130.226 281.014 125.883 279.805 121.461 279.092C119.275 278.699 117.025 278.853 114.913 279.541C112.78 280.267 110.991 281.759 109.895 283.728Z" fill="black"/>
<path d="M319.901 179.871C320.88 177.78 322.622 176.143 324.77 175.296C326.937 174.5 329.269 174.257 331.554 174.589C336.064 175.173 340.431 176.403 344.831 177.264C345.92 177.493 347.02 177.668 348.126 177.787C349.2 177.935 350.291 177.897 351.353 177.676C351.599 177.604 351.842 177.519 352.079 177.42C352.309 177.315 352.499 177.153 352.715 177.026C352.96 176.86 353.209 176.663 353.47 176.51C353.741 176.37 354.022 176.249 354.31 176.149C355.448 175.824 356.644 175.757 357.812 175.952C360.052 176.341 362.256 176.919 364.399 177.68L370.802 179.871C368.611 179.328 366.45 178.673 364.276 178.079C362.141 177.406 359.954 176.913 357.737 176.603C356.668 176.468 355.582 176.551 354.545 176.847C354.302 176.935 354.066 177.039 353.837 177.16C353.616 177.294 353.424 177.455 353.203 177.604C352.95 177.789 352.686 177.958 352.412 178.11C352.131 178.233 351.844 178.338 351.55 178.426C350.403 178.684 349.22 178.742 348.053 178.597C346.916 178.489 345.785 178.323 344.665 178.098C340.231 177.157 335.888 175.947 331.466 175.235C329.28 174.841 327.03 174.995 324.918 175.683C322.785 176.409 320.997 177.901 319.901 179.871Z" fill="black"/>
<path d="M507.954 143.336C497.991 143.336 489.678 135.28 489.57 135.173L489.051 134.662L489.727 134.389C506.867 127.441 517.306 139.829 517.41 139.954L517.758 140.379L517.29 140.666C514.491 142.416 511.255 143.341 507.954 143.336ZM490.797 134.998C493.439 137.322 505.06 146.56 516.289 140.146C514.348 138.117 505.078 129.606 490.797 134.998Z" fill="black"/>
<path d="M503.473 137.806C507.08 138.378 510.68 138.999 514.269 139.69C516.064 140.041 517.857 140.4 519.641 140.819C520.534 141.027 521.426 141.242 522.314 141.499C523.234 141.734 524.13 142.058 524.988 142.466C525.044 142.494 525.094 142.533 525.135 142.58C525.176 142.627 525.208 142.683 525.228 142.742C525.248 142.802 525.256 142.865 525.251 142.927C525.247 142.99 525.23 143.051 525.202 143.107C525.174 143.164 525.136 143.214 525.088 143.255C525.041 143.296 524.986 143.328 524.926 143.348C524.867 143.368 524.804 143.376 524.741 143.371C524.678 143.367 524.617 143.35 524.561 143.322L524.554 143.319L524.499 143.29C522.881 142.539 521.194 141.945 519.463 141.515C517.712 141.023 515.941 140.586 514.168 140.159C510.619 139.312 507.054 138.528 503.473 137.806Z" fill="black"/>
<path d="M154.356 223.238C150.662 223.215 146.995 222.6 143.495 221.415L142.814 221.157L143.32 220.634C156.188 207.341 170.744 214.449 170.889 214.524L171.38 214.771L171.067 215.224C166.67 221.601 160.022 223.238 154.356 223.238ZM144.546 220.759C147.903 221.815 162.268 225.562 169.942 215.152C167.346 214.083 155.424 210.052 144.546 220.759H144.546Z" fill="black"/>
<path d="M157.275 218.198C160.805 217.262 164.35 216.38 167.91 215.554C169.693 215.148 171.478 214.751 173.28 214.413C174.181 214.242 175.083 214.078 175.999 213.953C176.936 213.796 177.886 213.73 178.835 213.755C178.961 213.762 179.08 213.818 179.165 213.912C179.25 214.005 179.294 214.129 179.289 214.255C179.283 214.382 179.227 214.5 179.134 214.586C179.041 214.671 178.918 214.717 178.791 214.711L178.784 214.711L178.721 214.707C176.938 214.675 175.155 214.813 173.398 215.121C171.598 215.379 169.802 215.696 168.007 216.023C164.42 216.685 160.842 217.417 157.275 218.198Z" fill="black"/>
<path d="M534.755 146.346C538.901 146.705 543.015 147.374 547.061 148.348C551.142 149.284 555.083 150.749 558.784 152.708C560.661 153.705 562.353 155.017 563.787 156.587C565.255 158.201 566.177 160.236 566.421 162.404C566.464 162.945 566.44 163.491 566.438 164.032C566.357 164.566 566.296 165.107 566.194 165.634C565.965 166.68 565.634 167.702 565.204 168.683C564.753 169.691 564.108 170.6 563.305 171.357C562.468 172.12 561.432 172.628 560.316 172.823C558.138 173.103 555.927 172.681 554.005 171.618C552.079 170.619 550.474 169.095 549.375 167.223C548.286 165.361 547.696 163.25 547.661 161.093C547.627 158.937 548.149 156.807 549.177 154.911C550.254 153.063 551.754 151.497 553.553 150.341C555.307 149.197 557.155 148.206 559.079 147.379C562.925 145.778 566.924 144.57 571.014 143.776C566.982 144.747 563.05 146.097 559.271 147.808C555.605 149.583 551.73 151.637 549.825 155.262C548.898 157.05 548.44 159.045 548.492 161.059C548.544 163.072 549.106 165.04 550.125 166.778C551.149 168.498 552.639 169.893 554.422 170.803C556.169 171.755 558.171 172.133 560.144 171.882C561.089 171.726 561.97 171.302 562.681 170.661C563.396 169.992 563.972 169.189 564.376 168.297C565.239 166.484 565.644 164.486 565.554 162.48C565.34 160.49 564.503 158.618 563.164 157.13C561.795 155.623 560.192 154.344 558.418 153.344C554.806 151.339 550.949 149.812 546.944 148.8C542.941 147.707 538.869 146.887 534.755 146.346Z" fill="black"/>
<path d="M172.46 369.384C173.612 369.569 174.748 369.847 175.855 370.215C177.017 370.564 178.12 371.085 179.127 371.761C179.42 371.968 179.682 372.216 179.905 372.496C180.05 372.683 180.16 372.894 180.228 373.12C180.323 373.41 180.322 373.721 180.227 374.011C180.051 374.477 179.704 374.858 179.255 375.076C178.947 375.243 178.621 375.373 178.283 375.466C177.102 375.768 175.883 375.894 174.665 375.837C172.342 375.676 170.03 375.391 167.737 374.985C165.455 374.658 163.164 374.429 160.864 374.165C158.556 373.934 156.266 373.545 154.011 373.002C151.725 372.498 149.485 371.807 147.313 370.936C146.187 370.47 145.115 369.887 144.113 369.195C143.84 368.995 143.583 368.772 143.346 368.531C143.035 368.232 142.8 367.863 142.662 367.454C142.574 367.156 142.578 366.838 142.672 366.541C142.761 366.269 142.921 366.025 143.136 365.835C143.439 365.58 143.793 365.391 144.173 365.279C144.778 365.102 145.402 365.003 146.032 364.981C146.624 364.946 147.218 364.946 147.81 364.981C148.974 365.044 150.133 365.186 151.278 365.405L151.269 365.597C150.117 365.702 148.973 365.803 147.851 365.96C146.775 366.07 145.717 366.316 144.702 366.692C144.536 366.76 144.385 366.862 144.258 366.991C144.222 367.095 144.305 366.925 144.29 366.934C144.374 367.054 144.475 367.161 144.589 367.252C144.769 367.404 144.962 367.541 145.163 367.664C146.098 368.207 147.077 368.67 148.091 369.046C150.161 369.862 152.303 370.608 154.477 371.261C156.658 371.888 158.848 372.528 161.058 373.134C163.266 373.747 165.524 374.16 167.805 374.367C170.078 374.504 172.358 374.463 174.625 374.243C175.703 374.183 176.776 374.045 177.834 373.829C178.053 373.78 178.266 373.707 178.469 373.612C178.648 373.533 178.717 373.427 178.684 373.492C178.667 373.582 178.724 373.554 178.632 373.398C178.511 373.219 178.364 373.058 178.197 372.919C177.344 372.238 176.425 371.646 175.452 371.152L172.399 369.565L172.46 369.384Z" fill="black"/>
<path d="M174.615 362.926C175.778 363.107 176.925 363.379 178.046 363.738C179.209 364.082 180.323 364.575 181.36 365.205C181.644 365.391 181.911 365.601 182.158 365.833C182.496 366.148 182.727 366.562 182.817 367.016C182.856 367.332 182.796 367.652 182.644 367.931C182.517 368.159 182.344 368.356 182.135 368.512C181.829 368.739 181.487 368.915 181.123 369.031C179.933 369.389 178.691 369.545 177.449 369.493C175.102 369.348 172.766 369.073 170.45 368.668C168.146 368.347 165.834 368.115 163.513 367.852C161.184 367.62 158.873 367.229 156.596 366.682C154.289 366.175 152.028 365.478 149.836 364.599C148.699 364.131 147.617 363.541 146.607 362.84C146.331 362.636 146.072 362.408 145.833 362.161C145.514 361.849 145.282 361.459 145.16 361.029C145.082 360.721 145.105 360.396 145.227 360.103C145.276 359.961 145.351 359.831 145.45 359.718C145.525 359.613 145.615 359.52 145.719 359.442C146.028 359.201 146.381 359.023 146.759 358.918C147.958 358.631 149.195 358.537 150.424 358.64C151.598 358.707 152.767 358.852 153.922 359.074L153.912 359.265C152.749 359.367 151.595 359.465 150.461 359.619C149.372 359.727 148.3 359.969 147.27 360.338C147.093 360.406 146.931 360.509 146.795 360.641C146.73 360.758 146.828 360.616 146.815 360.598C146.895 360.708 146.987 360.808 147.09 360.896C147.27 361.049 147.461 361.188 147.662 361.312C148.604 361.863 149.591 362.33 150.614 362.71C152.703 363.533 154.867 364.284 157.061 364.94C159.263 365.572 161.474 366.213 163.706 366.82C165.934 367.435 168.214 367.847 170.517 368.051C172.81 368.185 175.11 368.135 177.395 367.899C178.471 367.836 179.539 367.676 180.586 367.422C180.779 367.371 180.962 367.292 181.131 367.187C181.249 367.084 181.186 367.154 181.201 367.213C181.165 367.099 181.104 366.993 181.024 366.903C180.862 366.725 180.685 366.561 180.495 366.412C178.606 365.156 176.62 364.051 174.556 363.109L174.615 362.926Z" fill="black"/>
<path d="M250.854 373.967C251.986 374.151 253.102 374.428 254.189 374.795C255.334 375.142 256.418 375.669 257.399 376.355C257.69 376.571 257.945 376.833 258.155 377.13L258.32 377.423C258.368 377.548 258.407 377.675 258.438 377.805C258.49 378.108 258.45 378.419 258.324 378.699C258.104 379.109 257.756 379.436 257.334 379.63C257.03 379.781 256.713 379.901 256.386 379.989C255.225 380.28 254.028 380.399 252.833 380.344C250.551 380.183 248.279 379.903 246.026 379.506C243.784 379.188 241.533 378.966 239.272 378.717C237.004 378.499 234.753 378.127 232.535 377.605C230.29 377.119 228.086 376.458 225.944 375.629C224.847 375.189 223.79 374.652 222.787 374.026C222.223 373.678 221.717 373.246 221.286 372.743C220.965 372.372 220.793 371.895 220.804 371.404C220.831 371.142 220.921 370.89 221.066 370.67C221.211 370.449 221.408 370.267 221.638 370.139C222.224 369.824 222.869 369.638 223.532 369.592C224.117 369.53 224.706 369.507 225.294 369.524C226.441 369.56 227.584 369.68 228.713 369.881L228.707 370.073C227.577 370.196 226.456 370.319 225.362 370.502C224.818 370.597 224.279 370.704 223.767 370.839C223.309 370.944 222.874 371.13 222.483 371.389C222.344 371.505 222.388 371.551 222.414 371.47C222.418 371.405 222.457 371.514 222.594 371.642C222.938 371.96 223.326 372.227 223.746 372.435C224.698 372.933 225.684 373.365 226.695 373.729C228.746 374.505 230.854 375.228 232.993 375.861L239.464 377.686C241.633 378.286 243.852 378.689 246.094 378.888C248.327 379.016 250.567 378.97 252.793 378.75C253.854 378.689 254.909 378.555 255.951 378.349C256.171 378.3 256.386 378.231 256.594 378.142C256.687 378.096 256.776 378.044 256.862 377.985C256.823 378.046 256.912 378.112 256.829 377.951C256.725 377.778 256.594 377.622 256.441 377.49C255.62 376.809 254.728 376.218 253.779 375.73L250.793 374.149L250.854 373.967Z" fill="black"/>
<path d="M252.855 367.461C253.952 367.65 255.029 367.936 256.076 368.315C256.613 368.502 257.135 368.728 257.64 368.99C258.2 369.26 258.712 369.621 259.155 370.058C259.472 370.377 259.67 370.795 259.716 371.242C259.722 371.507 259.663 371.769 259.545 372.005C259.426 372.242 259.251 372.446 259.036 372.599C258.481 372.973 257.854 373.226 257.196 373.344C256.072 373.571 254.925 373.656 253.78 373.598C251.539 373.504 249.37 373.035 247.199 372.739C245.029 372.427 242.85 372.216 240.661 371.982C238.464 371.781 236.284 371.43 234.135 370.933C231.962 370.473 229.826 369.853 227.746 369.076C226.689 368.664 225.663 368.176 224.676 367.617C224.156 367.319 223.662 366.976 223.202 366.592C222.942 366.37 222.709 366.118 222.508 365.841C222.36 365.648 222.253 365.428 222.191 365.193C222.13 364.958 222.116 364.713 222.15 364.473C222.204 364.238 222.31 364.018 222.46 363.83C222.61 363.641 222.8 363.489 223.017 363.384C223.311 363.231 223.625 363.118 223.949 363.049C224.519 362.923 225.101 362.858 225.685 362.853C226.799 362.84 227.913 362.923 229.014 363.104L229.011 363.295C227.922 363.449 226.838 363.59 225.801 363.827C225.299 363.933 224.806 364.078 224.327 364.26C224.125 364.337 223.934 364.441 223.76 364.569C223.604 364.684 223.599 364.779 223.639 364.723C223.659 364.667 223.669 364.738 223.788 364.864C223.935 365.007 224.094 365.138 224.264 365.253C224.672 365.531 225.103 365.774 225.552 365.979C226.503 366.425 227.477 366.82 228.469 367.165C230.468 367.892 232.513 368.58 234.586 369.188L240.851 370.951C242.949 371.536 245.097 371.928 247.267 372.121C249.43 372.242 251.599 372.203 253.757 372.003C254.817 371.927 255.877 371.848 256.856 371.681C257.279 371.626 257.687 371.495 258.063 371.294C258.182 371.203 258.145 371.238 258.158 371.292C258.183 371.324 258.143 371.176 258.031 371.029C257.331 370.312 256.525 369.709 255.642 369.238C254.717 368.695 253.755 368.183 252.791 367.641L252.855 367.461Z" fill="black"/>
</svg>
