<svg width="86" height="86" viewBox="0 0 86 86" fill="none" xmlns="http://www.w3.org/2000/svg">
<circle cx="43" cy="43" r="43" fill="#C4C4C4" fill-opacity="0.75"/>
<path d="M34.5205 49.7357H41.2882V54.8463L38.6553 52.2122C37.0416 50.6487 34.6677 53.0146 36.2347 54.634C36.5246 54.8326 42.1351 60.7512 42.3702 60.5686C42.6806 60.692 43.0203 60.7218 43.3475 60.6543C43.6747 60.5867 43.9749 60.4248 44.211 60.1886L49.7656 54.6329C49.9338 54.4762 50.0687 54.2872 50.1622 54.0772C50.2558 53.8672 50.3061 53.6405 50.3102 53.4106C50.3142 53.1808 50.2719 52.9525 50.1858 52.7393C50.0997 52.5261 49.9716 52.3325 49.809 52.1699C49.6465 52.0074 49.4528 51.8792 49.2397 51.7931C49.0265 51.707 48.7982 51.6647 48.5683 51.6688C48.3385 51.6729 48.1118 51.7232 47.9018 51.8167C47.6918 51.9103 47.5028 52.0452 47.3461 52.2134L44.712 54.8463V49.7357H51.4798C55.9627 49.7357 59.6101 46.0882 59.6101 41.6065C59.6101 37.555 56.6314 34.1848 52.7466 33.5754C51.9739 28.8927 47.8985 25.3103 43.0001 25.3103C38.1018 25.3103 34.0264 28.8939 33.2537 33.5754C29.37 34.1848 26.3901 37.5538 26.3901 41.6065C26.3901 46.0882 30.0376 49.7357 34.5205 49.7357ZM34.5205 36.901H34.8344C35.2884 36.901 35.7238 36.7207 36.0449 36.3996C36.3659 36.0786 36.5463 35.6431 36.5463 35.1891C36.5463 31.6284 39.4417 28.7341 43.0001 28.7341C46.5586 28.7341 49.454 31.6295 49.454 35.188C49.454 35.642 49.6344 36.0774 49.9554 36.3985C50.2765 36.7195 50.7119 36.8999 51.1659 36.8999H51.4798C52.7276 36.9011 53.9241 37.3973 54.8065 38.2797C55.6889 39.1621 56.1851 40.3586 56.1863 41.6065C56.1848 42.8542 55.6884 44.0503 54.8061 44.9324C53.9237 45.8146 52.7274 46.3107 51.4798 46.3119H44.712V40.0247C44.6778 37.7844 41.327 37.7672 41.2882 40.0247V46.313H34.5205C33.2726 46.3118 32.0762 45.8156 31.1938 44.9332C30.3114 44.0508 29.8151 42.8543 29.8139 41.6065C29.8154 40.3588 30.3118 39.1626 31.1942 38.2805C32.0766 37.3983 33.2728 36.9022 34.5205 36.901Z" fill="white" fill-opacity="0.75"/>
</svg>
