<svg width="38" height="38" viewBox="0 0 38 38" fill="none" xmlns="http://www.w3.org/2000/svg">
<path d="M10.5205 25.7357H17.2882V30.8463L14.6553 28.2122C13.0416 26.6487 10.6677 29.0146 12.2347 30.634C12.5246 30.8326 18.1351 36.7512 18.3702 36.5686C18.6806 36.692 19.0203 36.7218 19.3475 36.6543C19.6747 36.5867 19.9749 36.4248 20.211 36.1886L25.7656 30.6329C25.9338 30.4762 26.0687 30.2872 26.1622 30.0772C26.2558 29.8672 26.3061 29.6405 26.3102 29.4106C26.3142 29.1808 26.2719 28.9525 26.1858 28.7393C26.0997 28.5261 25.9716 28.3325 25.809 28.1699C25.6465 28.0074 25.4528 27.8792 25.2397 27.7931C25.0265 27.707 24.7982 27.6647 24.5683 27.6688C24.3385 27.6729 24.1118 27.7232 23.9018 27.8167C23.6918 27.9103 23.5028 28.0452 23.3461 28.2134L20.712 30.8463V25.7357H27.4798C31.9627 25.7357 35.6101 22.0882 35.6101 17.6065C35.6101 13.555 32.6314 10.1848 28.7466 9.57536C27.9739 4.89274 23.8985 1.3103 19.0001 1.3103C14.1018 1.3103 10.0264 4.89388 9.25372 9.57536C5.36998 10.1848 2.39014 13.5538 2.39014 17.6065C2.39014 22.0882 6.03763 25.7357 10.5205 25.7357ZM10.5205 12.901H10.8344C11.2884 12.901 11.7238 12.7207 12.0449 12.3996C12.3659 12.0786 12.5463 11.6431 12.5463 11.1891C12.5463 7.62836 15.4417 4.7341 19.0001 4.7341C22.5586 4.7341 25.454 7.6295 25.454 11.188C25.454 11.642 25.6344 12.0774 25.9554 12.3985C26.2765 12.7195 26.7119 12.8999 27.1659 12.8999H27.4798C28.7276 12.9011 29.9241 13.3973 30.8065 14.2797C31.6889 15.1621 32.1851 16.3586 32.1863 17.6065C32.1848 18.8542 31.6884 20.0503 30.8061 20.9324C29.9237 21.8146 28.7274 22.3107 27.4798 22.3119H20.712V16.0247C20.6778 13.7844 17.327 13.7672 17.2882 16.0247V22.313H10.5205C9.27263 22.3118 8.07619 21.8156 7.1938 20.9332C6.31141 20.0508 5.81515 18.8543 5.81394 17.6065C5.81545 16.3588 6.31184 15.1626 7.1942 14.2805C8.07656 13.3983 9.27283 12.9022 10.5205 12.901Z" fill="white" fill-opacity="0.75"/>
</svg>
