<svg id="friends" xmlns="http://www.w3.org/2000/svg" xmlns:xlink="http://www.w3.org/1999/xlink" viewBox="0 0 786.294680 749.197100" shape-rendering="geometricPrecision" text-rendering="geometricPrecision"><ellipse id="friends-ellipse1" rx="358" ry="40" transform="matrix(1 0 0 1 428.29500000000002 670.88999999999999)" fill="rgb(63,61,86)" stroke="none" stroke-width="1"/><path id="friends-path1" d="M812.694450,702.031100L818.868560,721.054250C818.868560,721.054250,848.604560,751.775040,837.849840,760.101800C827.095120,768.428560,802.965840,724.533430,802.965840,724.533430L798.518840,703.057300Z" transform="matrix(1 0 0 1 -206.85300000000001 -75.40150000000000)" fill="rgb(255,184,184)" stroke="none" stroke-width="1"/><path id="friends-path2" d="M755.647340,554.791690L764.647340,551.791690C764.647340,551.791690,778.647340,555.791690,780.647340,569.791690C782.647340,583.791690,797.647340,654.791690,797.647340,654.791690C797.647340,654.791690,803.647340,657.791690,799.647340,662.791690C795.647340,667.791690,819.647340,712.791690,819.647340,712.791690L800.647340,721.791690C800.647340,721.791690,762.647340,681.791690,762.647340,677.791690C762.647340,673.791690,763.647340,669.791690,763.647340,665.791690C763.647340,661.791690,762.647340,661.791690,763.647340,658.791690C764.314863,656.177515,764.650835,653.489742,764.647340,650.791690L757.647340,634.791690Z" transform="matrix(1 0 0 1 -206.85300000000001 -75.40150000000000)" fill="rgb(249,168,38)" stroke="none" stroke-width="1"/><ellipse id="friends-medium-treetop" rx="90.417800" ry="184.489000" transform="matrix(0.99810796710281 0.00731664458544 -0.00733031720946 0.99997313286388 91.77004032086681 363.50292176116932)" fill="rgb(249,168,38)" stroke="none" stroke-width="1"/><g id="friends-medium-tree-trunk" transform="matrix(0.88548520373975 0.00695472752877 -0.00807228041121 1.02777353030692 16.51629734306151 -18.93657970980473)"><path id="friends-path3" d="M296.440310,440.812680C300.950560,360.506040,310.037960,306.261410,310.129310,305.722840L308.157630,305.388840C308.066320,305.927910,298.962810,360.259450,294.445230,440.669610C290.276290,514.883470,289.270430,627.136400,308.157150,740.455740L310.129800,740.127610C291.275270,627.000670,292.278690,514.917660,296.440310,440.812680Z" transform="matrix(1 0 0 1 -206.85300000000001 -75.40150000000000)" fill="rgb(63,61,86)" stroke="none" stroke-width="1"/><rect id="friends-rect1" width="92.725200" height="2.000120" rx="0" ry="0" transform="matrix(0.88165900000000 -0.47188800000000 0.47188800000000 0.88165900000000 89.47860980400007 369.84023884700019)" fill="rgb(63,61,86)" stroke="none" stroke-width="1"/><rect id="friends-rect2" width="2.000120" height="92.725200" rx="0" ry="0" transform="matrix(0.47165200000000 -0.88178500000000 0.88178500000000 0.47165200000000 3.17657763400007 349.77732103400001)" fill="rgb(63,61,86)" stroke="none" stroke-width="1"/></g><ellipse id="friends-biggest-treetop" rx="123.730000" ry="252.458000" transform="matrix(1.01910695051655 0.00871573062768 -0.00855200908683 0.99996343090164 306.73624338346394 252.47280650001014)" fill="rgb(230,230,230)" stroke="none" stroke-width="1"/><g id="friends-biggest-tree-trunk" transform="matrix(0.99996777165010 0.00802842831040 -0.00802842831040 0.99996777165010 5.09022174914094 -2.56314224326002)"><path id="friends-path4" d="M509.914920,330.446000C516.087770,220.534870,528.525760,146.294150,528.650760,145.556840L526.679080,145.222840C526.554080,145.960630,514.099980,220.288270,507.919800,330.302920C502.215210,431.840510,500.839230,585.420590,526.678590,740.455750L528.651250,740.127620C502.844120,585.283870,504.218140,431.874690,509.914920,330.446000Z" transform="matrix(1 0 0 1 -206.85300000000012 -75.40150000000006)" fill="rgb(63,61,86)" stroke="none" stroke-width="1"/><rect id="friends-rect3" width="126.887000" height="2.000120" rx="0" ry="0" transform="matrix(0.88165700000000 -0.47189100000000 0.47189100000000 0.88165700000000 303.45350853599990 261.46107397199989)" fill="rgb(63,61,86)" stroke="none" stroke-width="1"/><rect id="friends-rect4" width="2.000120" height="126.887000" rx="0" ry="0" transform="matrix(0.47165200000000 -0.88178500000000 0.88178500000000 0.47165200000000 185.35505222600005 233.35825236100004)" fill="rgb(63,61,86)" stroke="none" stroke-width="1"/></g><ellipse id="friends-smallest-treetop" rx="46.228600" ry="94.325100" transform="matrix(1.02368962039253 0 0 1 201.49100000000001 508.96800000000002)" fill="rgb(230,230,230)" stroke="none" stroke-width="1"/><path id="friends-smallest-tree-trunk" d="M408.303410,588.433410L408.577030,588.945010L450.374880,566.572940L449.431520,564.809260L408.390520,586.776260C410.661640,544.974870,415.306660,516.913590,415.400290,516.361040L413.428610,516.027040C413.326380,516.630430,407.807390,549.953550,405.848470,598.171940L364.455000,576.016300L363.511600,577.780000L405.309450,600.152000L405.808450,599.219200C404.241130,639.016560,405.119610,688.778830,413.428140,738.629540L415.400800,738.301410C406.342100,683.949000,406.142580,629.698670,408.303410,588.433410Z" transform="matrix(1 0 0 1 -206.85300000000004 -75.40150000000006)" fill="rgb(63,61,86)" stroke="none" stroke-width="1"/><path id="friends-hair" d="M767.883800,459.865650C751.809630,432.470220,720.008150,431.193470,720.008150,431.193470C720.008150,431.193470,689.019430,427.196370,669.140360,468.919940C650.611480,507.809750,625.039260,545.358640,665.023440,554.462460L672.245740,531.788890L676.718480,556.150490C682.411290,556.563485,688.122557,556.661938,693.826220,556.445400C736.646050,555.050960,777.425460,556.853400,776.112420,541.354850C774.367000,520.751750,783.350390,486.225530,767.883800,459.865650Z" transform="matrix(1 0 0 1 -206.85299999999995 -74.16596233999996)" fill="rgb(47,46,65)" stroke="none" stroke-width="1"/><path id="friends-path5" d="M655.842130,679.300510C655.393515,682.164253,654.742140,684.992530,653.892920,687.764010C652.936750,690.476010,651.460520,692.984070,650.586250,695.724010C647.799470,704.457800,651.662770,714.195760,657.833070,720.937120C663.168221,726.750458,670.077361,730.888622,677.720500,732.848510C683.286910,734.260600,689.074670,734.463830,694.811140,734.660040C710.695730,735.203350,726.989020,735.689420,742.040610,730.540350C746.798645,728.872282,751.392096,726.767453,755.762200,724.252790C757.145062,723.587566,758.361587,722.621402,759.322650,721.425080C760.470650,719.776570,760.617500,717.638600,760.607480,715.624080C760.573700,708.831910,759.208540,702.074380,759.532670,695.290000C759.712200,691.532140,760.409460,687.777180,760.066240,684.030920C759.120169,675.344087,752.823619,668.185699,744.328480,666.139060C740.058680,665.214220,735.630020,665.718170,731.282930,666.139770C719.999609,667.233366,708.667405,667.744454,697.331450,667.671000C685.749330,667.596430,674.238730,665.813140,662.714260,665.626890C659.306140,665.571820,659.374990,666.631600,658.289970,669.958580C657.290320,673.021503,656.472942,676.140941,655.842130,679.300510Z" transform="matrix(1 0 0 1 -206.85300000000001 -75.40150000000000)" fill="rgb(47,46,65)" stroke="none" stroke-width="1"/><path id="friends-path6" d="M610.551800,673.780220C607.438392,672.990778,604.228802,672.646628,601.018800,672.758040C594.193854,673.188202,587.874387,676.502244,583.639800,681.871900C579.447921,687.319974,577.738587,694.278909,578.929270,701.049110C579.706094,704.676164,580.977121,708.179420,582.706760,711.460780C585.234940,716.635840,588.267140,721.799020,592.947460,725.115320C595.764753,726.937481,598.801482,728.395492,601.985160,729.454550L626.635460,738.821110C630.261800,740.199040,633.888680,741.577170,637.550910,742.854860C655.939526,749.267414,675.124365,753.114402,694.563670,754.287190C700.482670,754.642710,706.491240,754.741630,712.265550,753.382450C713.676918,753.195539,714.968730,752.491590,715.890870,751.406900C716.361076,750.580034,716.637996,749.657450,716.700870,748.708320L718.217720,737.997520C718.557223,736.505760,718.512864,734.952266,718.088790,733.482310C717.393930,731.682220,715.652180,730.549840,713.991460,729.587760C697.785630,720.199380,678.863380,715.019880,665.222700,702.134490C662.011460,699.101060,659.324170,694.292770,655.422550,692.232220C650.998170,689.895590,645.787620,688.561990,641.214410,686.408810C631.216840,681.701710,621.387270,676.292530,610.551800,673.780220Z" transform="matrix(1 0 0 1 -206.85300000000001 -75.40150000000000)" fill="rgb(47,46,65)" stroke="none" stroke-width="1"/><path id="friends-path7" d="M635.161550,688.219920C643.874390,690.973710,680.660050,710.051980,686.965220,716.713090C686.120070,717.020230,657.444980,700.811210,656.584560,700.550740C648.763260,698.183090,640.898480,695.799900,633.471000,692.334940C631.976790,691.637940,623.763750,688.361550,624.135700,686.459940C624.555410,684.314140,633.614780,687.731050,635.161550,688.219920Z" transform="matrix(1 0 0 1 -206.85300000000001 -75.40150000000000)" opacity="0.1" fill="rgb(0,0,0)" stroke="none" stroke-width="1"/><path id="friends-path8" d="M743.859780,759.842120C744.354780,759.878525,744.846013,759.732706,745.240980,759.432120C745.592189,758.976322,745.747532,758.399477,745.672710,757.828950L745.632120,743.237040C741.472050,741.237820,736.818710,740.597040,732.251210,739.981200L710.940000,737.108000C711.429630,737.174000,707.607870,746.366350,708.193860,747.593560C709.226680,749.756560,717.119690,751.673490,719.347280,752.694750C727.091150,756.245000,735.138070,760.148000,743.859780,759.842120Z" transform="matrix(1 0 0 1 -206.85300000000001 -75.40150000000000)" fill="rgb(255,184,184)" stroke="none" stroke-width="1"/><path id="friends-path9" d="M676.996100,743.186540C672.972350,743.832980,668.481320,744.404400,665.875480,747.563740C662.570920,751.570210,663.977700,757.542850,665.554080,762.506070C665.787617,763.508731,666.257607,764.440984,666.924820,765.225010C668.000620,766.295510,669.649200,766.452340,671.157380,766.548670C674.826980,766.783050,678.732180,766.966670,681.938450,765.151130C683.391355,764.182617,684.789497,763.134368,686.126450,762.011200C688.487950,760.425644,691.087283,759.226983,693.826450,758.460410C698.855402,756.864635,704.034556,755.788062,709.282860,755.247540C711.350877,755.152424,713.397713,754.788493,715.371770,754.164920C717.377041,753.509275,718.962363,751.956791,719.659830,749.965680C720.402510,747.313910,718.874530,744.610340,717.409090,742.284760C715.583590,739.387760,713.649630,736.337450,710.927720,734.204820C706.956780,731.093560,704.992480,733.481940,700.992510,735.472900C693.428480,739.239549,685.338134,741.840188,676.996100,743.186540Z" transform="matrix(1 0 0 1 -206.85300000000001 -75.40150000000000)" fill="rgb(255,184,184)" stroke="none" stroke-width="1"/><path id="friends-path10" d="M666.480830,746.842300L640.931500,739.225450C637.868783,738.149433,634.666157,737.523453,631.423690,737.367070C628.183520,737.369500,624.793500,738.441070,622.692100,740.928750C620.710920,743.274100,620.143870,746.479530,619.649970,749.520200L618.593440,756.024660C617.888853,759.304602,617.689370,762.672921,618.001890,766.013100C618.485150,769.327000,620.162340,772.637800,623.077510,774.242030C626.613040,776.187650,630.946280,775.237350,634.892140,774.423540C642.860755,772.780477,650.968286,771.903539,659.103930,771.804710C662.162050,771.767820,665.369650,771.806460,668.071930,770.361880C671.284100,768.644710,673.205820,765.013880,673.536250,761.362160C674.039000,755.805890,672.202920,748.548190,666.480830,746.842300Z" transform="matrix(1 0 0 1 -206.85300000000001 -75.40150000000000)" fill="rgb(47,46,65)" stroke="none" stroke-width="1"/><path id="friends-path11" d="M753.902830,740.204690C757.214920,739.619180,760.138020,737.720500,763.311710,736.599770C767.778860,735.022300,772.619820,735.022320,777.352790,735.039770C779.090260,735.046170,780.940490,735.085460,782.386790,736.056660C784.471590,737.456660,785.005910,740.258240,785.360400,742.759030L787.499190,757.847400C787.901480,760.685400,788.301380,763.599260,787.673910,766.395400C787.046440,769.191540,785.156910,771.887060,782.406110,772.608400C779.065190,773.484460,775.789990,771.331810,772.635520,769.917720C764.751190,766.383320,755.586110,767.286720,747.365270,764.645040C745.839650,764.154800,744.205700,763.405190,743.583270,761.917160C743.302019,761.078596,743.201737,760.189934,743.289040,759.309780C743.429820,754.459940,742.415700,747.837380,743.863310,743.202300C745.165230,739.033760,750.205690,740.204690,753.902830,740.204690Z" transform="matrix(1 0 0 1 -206.85300000000001 -75.40150000000000)" fill="rgb(47,46,65)" stroke="none" stroke-width="1"/><path id="friends-right-leg" d="M807.970770,667.707180C813.074131,666.416068,818.367773,666.051263,823.600000,666.630110C827.778300,667.094410,832.083220,668.267110,835.133840,671.184160C838.846890,674.734600,840.039900,680.225450,840.139430,685.385090C840.307132,695.648572,836.930512,705.655939,830.578940,713.719730C829.032021,715.751699,827.189627,717.540644,825.113010,719.027090C822.877234,720.438054,820.492224,721.597342,818.001500,722.483800L762.798130,744.446000C748.275350,750.223780,733.701310,756.018300,718.553270,759.827310C717.715275,760.233746,716.748196,760.282626,715.873491,759.962758C714.998786,759.642889,714.291381,758.981671,713.913270,758.130520C709.073260,751.155813,705.015819,743.669457,701.814270,735.806740C701.521868,735.298557,701.464973,734.688319,701.658390,734.134840C701.860515,733.831011,702.142522,733.588815,702.473390,733.434890L741.519140,710.806250C744.384749,709.298169,747.053885,707.443178,749.466370,705.283100C751.155887,703.630708,752.537522,701.690545,753.546520,699.553540C754.355870,697.848420,754.431370,693.824540,755.465180,692.564250C756.477380,691.330250,759.939910,691.231790,761.539090,690.746440C763.795219,690.049325,766.003950,689.207168,768.151480,688.225230C776.885720,684.284000,784.663480,678.557590,793.036380,673.942820C797.728405,671.236273,802.747226,669.140737,807.970770,667.707180Z" transform="matrix(1 0 0 1 -206.85300000000007 -75.40149999999994)" fill="rgb(47,46,65)" stroke="none" stroke-width="1"/><path id="friends-path12" d="M785.835310,684.606170C779.127120,689.688090,770.441190,694.359540,763.792660,699.575370C761.523590,701.355480,723.697600,722.805670,723.162760,725.654520C729.365470,726.708680,768.877280,698.827960,774.530440,696.045910C780.183600,693.263860,785.194920,689.340580,790.160720,685.446250C791.426210,684.453810,796.789350,681.470380,793.156530,680.361580C791.110000,679.737000,787.346170,683.590210,785.835310,684.606170Z" transform="matrix(1 0 0 1 -206.85300000000001 -75.40150000000000)" opacity="0.1" fill="rgb(0,0,0)" stroke="none" stroke-width="1"/><circle id="friends-circle1" r="38" transform="matrix(1 0 0 1 511.79500000000002 415.38999999999999)" fill="rgb(255,184,184)" stroke="none" stroke-width="1"/><path id="friends-path13" d="M734.647340,522.791690C734.647340,522.791690,728.647340,537.791690,739.647340,543.791690C750.647340,549.791690,705.647340,597.791690,705.647340,597.791690L685.647340,539.791690C685.647340,539.791690,702.647340,533.791690,699.647340,517.791690Z" transform="matrix(1 0 0 1 -206.85300000000001 -75.40150000000000)" fill="rgb(255,184,184)" stroke="none" stroke-width="1"/><path id="friends-path14" d="M709.647340,563.791690L733.865340,537.055950L766.647340,553.791690L761.647340,671.791690L753.647340,680.791690C753.647340,680.791690,719.647340,710.791690,667.647340,685.791690C667.647340,685.791690,649.647340,670.791690,650.647340,647.791690C651.647340,624.791690,648.647340,621.791690,648.647340,621.791690L647.647340,540.791690L697.018450,531.103690Z" transform="matrix(1 0 0 1 -206.85300000000001 -75.40150000000000)" fill="rgb(249,168,38)" stroke="none" stroke-width="1"/><path id="friends-hand" d="M598.600230,691.031100L592.426120,710.054250C592.426120,710.054250,562.690060,740.775000,573.444840,749.101800C584.199620,757.428600,608.328840,713.533430,608.328840,713.533430L612.775840,692.057300Z" transform="matrix(1 0 0 1 -206.85299999999995 -75.40150000000006)" fill="rgb(255,184,184)" stroke="none" stroke-width="1"/><path id="friends-path15" d="M655.647340,543.791690L646.647340,540.791690C646.647340,540.791690,632.647340,544.791690,630.647340,558.791690C628.647340,572.791690,613.647340,643.791690,613.647340,643.791690C613.647340,643.791690,607.647340,646.791690,611.647340,651.791690C615.647340,656.791690,591.647340,701.791690,591.647340,701.791690L610.647340,710.791690C610.647340,710.791690,648.647340,670.791690,648.647340,666.791690C648.647340,662.791690,647.647340,658.791690,647.647340,654.791690C647.647340,650.791690,648.647340,650.791690,647.647340,647.791690C646.979817,645.177515,646.643845,642.489742,646.647340,639.791690L653.647340,623.791690Z" transform="matrix(1 0 0 1 -206.85300000000018 -75.40150000000028)" fill="rgb(249,168,38)" stroke="none" stroke-width="1"/><polygon id="friends-polygon1" points="553.925000,381.823000 522.506000,365.224000 479.119000,372.014000 470.142000,412.005000 492.488000,411.138000 498.730000,396.446000 498.730000,410.895000 509.041000,410.495000 515.026000,387.105000 518.766000,412.005000 555.421000,411.250000 553.925000,381.823000" fill="rgb(47,46,65)" stroke="none" stroke-width="1"/><path id="friends-path16" d="M538.057310,714.481690L538.057310,772.161690L361.877310,772.161690C361.879016,740.306612,387.702232,714.483396,419.557310,714.481690C436.077310,709.331690,455.177370,707.691690,475.897310,708.231690C495.447330,708.731690,516.437320,711.181700,538.057310,714.481690Z" transform="matrix(1 0 0 1 -206.85300000000001 -75.40150000000000)" fill="rgb(255,101,132)" stroke="none" stroke-width="1"/><path id="friends-path17" d="M306.037000,684.177570L388.884470,684.177570C390.275133,684.177570,391.608837,684.730009,392.592184,685.713356C393.575531,686.696703,394.127970,688.030407,394.127970,689.421070L394.127970,689.421070C394.127970,690.811733,393.575531,692.145437,392.592184,693.128784C391.608837,694.112131,390.275133,694.664570,388.884470,694.664570L306.037000,694.664570L306.037000,684.177570Z" fill="rgb(63,61,86)" stroke="none" stroke-width="1"/><path id="friends-dark-ear" d="M527.238420,665.119610L549.444750,638.201330C550.492526,636.015432,552.783737,634.706108,555.198929,634.913077C557.614120,635.120045,559.649158,636.800104,560.309750,639.132400L569.066890,670.050850Z" transform="matrix(1 0 0 1 -206.85299999999984 -75.40149999999994)" fill="rgb(63,61,86)" stroke="none" stroke-width="1"/><path id="friends-bright-ear" d="M500.305250,678.829000L508.694870,644.956760C508.694891,642.532736,510.195059,640.361712,512.462418,639.504407C514.729778,638.647103,517.291060,639.282466,518.894870,641.100070L540.155870,665.195880Z" transform="matrix(1 0 0 1 -206.85300000000029 -75.40150000000006)" fill="rgb(255,101,132)" stroke="none" stroke-width="1"/><path id="friends-tail" d="M155.023920,696.762000L171.803150,696.762000L171.803150,732.417890C171.803150,736.868016,170.035344,741.135876,166.888630,744.282590C163.741916,747.429304,159.474056,749.197110,155.023930,749.197110L155.023930,749.197110L155.023930,696.762000Z" transform="matrix(0.99482765950164 -0.10157720162757 0.09654540563621 0.94554721321084 -64.81229780639228 50.20209591400123)" fill="rgb(255,101,132)" stroke="none" stroke-width="1"/><path id="friends-path18" d="M302.890910,686.275000L385.738380,686.275000C387.129043,686.275000,388.462747,686.827439,389.446094,687.810786C390.429441,688.794133,390.981880,690.127837,390.981880,691.518500L390.981880,691.518500C390.981880,692.909165,390.429440,694.242873,389.446091,695.226221C388.462743,696.209570,387.129035,696.762010,385.738370,696.762010L302.890910,696.762010L302.890910,686.275000Z" fill="rgb(255,101,132)" stroke="none" stroke-width="1"/><path id="friends-path19" d="M538.057310,714.481690L538.057310,771.841690C520.812914,773.673831,503.679358,767.506071,491.559277,755.103266C479.439196,742.700461,473.668088,725.429262,475.897310,708.231690C495.447330,708.731690,516.437320,711.181700,538.057310,714.481690Z" transform="matrix(1 0 0 1 -206.85300000000001 -75.40150000000000)" opacity="0.2" fill="rgb(0,0,0)" stroke="none" stroke-width="1"/><circle id="friends-circle2" r="56.629900" transform="matrix(1 0 0 1 331.20600000000002 640.13199999999995)" fill="rgb(255,101,132)" stroke="none" stroke-width="1"/><ellipse id="friends-ellipse2" rx="6.292210" ry="14.681800" transform="matrix(1 0 0 1 385.73800000000000 644.32700000000000)" fill="rgb(63,61,86)" stroke="none" stroke-width="1"/><ellipse id="friends-ellipse3" rx="1.573050" ry="3.670460" transform="matrix(1 0 0 1 370.53199999999998 629.12099999999998)" fill="rgb(63,61,86)" stroke="none" stroke-width="1"/><ellipse id="friends-ellipse4" rx="1.573050" ry="3.670460" transform="matrix(1 0 0 1 382.06799999999998 621.77999999999997)" fill="rgb(63,61,86)" stroke="none" stroke-width="1"/><path id="friends-path20" d="M533.307400,658.273320C533.307400,658.273320,530.159910,652.798130,530.159910,649.458080" transform="matrix(1 0 0 1 -206.85300000000001 -75.40150000000000)" fill="rgb(63,61,86)" stroke="none" stroke-width="1"/><path id="friends-path21" d="M534.692000,654.732100C534.692000,654.732100,536.407000,648.654010,538.795460,646.319200" transform="matrix(1 0 0 1 -206.85300000000001 -75.40150000000000)" fill="rgb(63,61,86)" stroke="none" stroke-width="1"/><script><![CDATA[!function(t,n){"object"==typeof exports&&"undefined"!=typeof module?module.exports=n():"function"==typeof define&&define.amd?define(n):(t="undefined"!=typeof globalThis?globalThis:t||self).__SVGATOR_PLAYER__=n()}(this,(function(){"use strict";function t(n){return(t="function"==typeof Symbol&&"symbol"==typeof Symbol.iterator?function(t){return typeof t}:function(t){return t&&"function"==typeof Symbol&&t.constructor===Symbol&&t!==Symbol.prototype?"symbol":typeof t})(n)}function n(t,n){if(!(t instanceof n))throw new TypeError("Cannot call a class as a function")}function r(t,n){for(var r=0;r<n.length;r++){var e=n[r];e.enumerable=e.enumerable||!1,e.configurable=!0,"value"in e&&(e.writable=!0),Object.defineProperty(t,e.key,e)}}function e(t,n,e){return n&&r(t.prototype,n),e&&r(t,e),t}function i(t){return(i=Object.setPrototypeOf?Object.getPrototypeOf:function(t){return t.__proto__||Object.getPrototypeOf(t)})(t)}function o(t,n){return(o=Object.setPrototypeOf||function(t,n){return t.__proto__=n,t})(t,n)}function u(t,n){return!n||"object"!=typeof n&&"function"!=typeof n?function(t){if(void 0===t)throw new ReferenceError("this hasn't been initialised - super() hasn't been called");return t}(t):n}function a(t){var n=function(){if("undefined"==typeof Reflect||!Reflect.construct)return!1;if(Reflect.construct.sham)return!1;if("function"==typeof Proxy)return!0;try{return Boolean.prototype.valueOf.call(Reflect.construct(Boolean,[],(function(){}))),!0}catch(t){return!1}}();return function(){var r,e=i(t);if(n){var o=i(this).constructor;r=Reflect.construct(e,arguments,o)}else r=e.apply(this,arguments);return u(this,r)}}function l(t,n,r){return(l="undefined"!=typeof Reflect&&Reflect.get?Reflect.get:function(t,n,r){var e=function(t,n){for(;!Object.prototype.hasOwnProperty.call(t,n)&&null!==(t=i(t)););return t}(t,n);if(e){var o=Object.getOwnPropertyDescriptor(e,n);return o.get?o.get.call(r):o.value}})(t,n,r||t)}var f=Math.abs;function s(t){return t}function c(t,n,r){var e=1-r;return 3*r*e*(t*e+n*r)+r*r*r}function h(){var t=arguments.length>0&&void 0!==arguments[0]?arguments[0]:0,n=arguments.length>1&&void 0!==arguments[1]?arguments[1]:0,r=arguments.length>2&&void 0!==arguments[2]?arguments[2]:1,e=arguments.length>3&&void 0!==arguments[3]?arguments[3]:1;return t<0||t>1||r<0||r>1?null:f(t-n)<=1e-5&&f(r-e)<=1e-5?s:function(i){if(i<=0)return t>0?i*n/t:0===n&&r>0?i*e/r:0;if(i>=1)return r<1?1+(i-1)*(e-1)/(r-1):1===r&&t<1?1+(i-1)*(n-1)/(t-1):1;for(var o,u=0,a=1;u<a;){var l=c(t,r,o=(u+a)/2);if(f(i-l)<1e-5)break;l<i?u=o:a=o}return c(n,e,o)}}function v(){return 1}function y(t){return 1===t?1:0}function d(){var t=arguments.length>0&&void 0!==arguments[0]?arguments[0]:1,n=arguments.length>1&&void 0!==arguments[1]?arguments[1]:0;if(1===t){if(0===n)return y;if(1===n)return v}var r=1/t;return function(t){return t>=1?1:(t+=n*r)-t%r}}function g(t){var n=arguments.length>1&&void 0!==arguments[1]?arguments[1]:2;if(Number.isInteger(t))return t;var r=Math.pow(10,n);return Math.round(t*r)/r}var p=Math.PI/180;function m(t,n,r){return t>=.5?r:n}function b(t,n,r){return 0===t||n===r?n:t*(r-n)+n}function w(t,n,r){var e=b(t,n,r);return e<=0?0:e}function x(t,n,r){return 0===t?n:1===t?r:{x:b(t,n.x,r.x),y:b(t,n.y,r.y)}}function k(t,n,r){var e=function(t,n,r){return Math.round(b(t,n,r))}(t,n,r);return e<=0?0:e>=255?255:e}function A(t,n,r){return 0===t?n:1===t?r:{r:k(t,n.r,r.r),g:k(t,n.g,r.g),b:k(t,n.b,r.b),a:b(t,null==n.a?1:n.a,null==r.a?1:r.a)}}function _(t,n,r){if(0===t)return n;if(1===t)return r;var e=n.length;if(e!==r.length)return m(t,n,r);for(var i=[],o=0;o<e;o++)i.push(A(t,n[o],r[o]));return i}function S(t,n){for(var r=[],e=0;e<t;e++)r.push(n);return r}function O(t,n){if(--n<=0)return t;var r=(t=Object.assign([],t)).length;do{for(var e=0;e<r;e++)t.push(t[e])}while(--n>0);return t}var M,j=function(){function t(r){n(this,t),this.list=r,this.length=r.length}return e(t,[{key:"setAttribute",value:function(t,n){for(var r=this.list,e=0;e<this.length;e++)r[e].setAttribute(t,n)}},{key:"removeAttribute",value:function(t){for(var n=this.list,r=0;r<this.length;r++)n[r].removeAttribute(t)}},{key:"style",value:function(t,n){for(var r=this.list,e=0;e<this.length;e++)r[e].style[t]=n}}]),t}(),F=/-./g,P=function(t,n){return n.toUpperCase()};function B(t){return"function"==typeof t?t:m}function I(t){return t?"function"==typeof t?t:Array.isArray(t)?function(t){var n=arguments.length>1&&void 0!==arguments[1]?arguments[1]:s;if(!Array.isArray(t))return n;switch(t.length){case 1:return d(t[0])||n;case 2:return d(t[0],t[1])||n;case 4:return h(t[0],t[1],t[2],t[3])||n}return n}(t,null):function(t,n){var r=arguments.length>2&&void 0!==arguments[2]?arguments[2]:s;switch(t){case"linear":return s;case"steps":return d(n.steps||1,n.jump||0)||r;case"bezier":case"cubic-bezier":return h(n.x1||0,n.y1||0,n.x2||0,n.y2||0)||r}return r}(t.type,t.value,null):null}function R(t,n,r){var e=arguments.length>3&&void 0!==arguments[3]&&arguments[3],i=n.length-1;if(t<=n[0].t)return e?[0,0,n[0].v]:n[0].v;if(t>=n[i].t)return e?[i,1,n[i].v]:n[i].v;var o,u=n[0],a=null;for(o=1;o<=i;o++){if(!(t>n[o].t)){a=n[o];break}u=n[o]}return null==a?e?[i,1,n[i].v]:n[i].v:u.t===a.t?e?[o,1,a.v]:a.v:(t=(t-u.t)/(a.t-u.t),u.e&&(t=u.e(t)),e?[o,t,r(t,u.v,a.v)]:r(t,u.v,a.v))}function q(t,n){var r=arguments.length>2&&void 0!==arguments[2]?arguments[2]:null;return t&&t.length?"function"!=typeof n?null:("function"!=typeof r&&(r=null),function(e){var i=R(e,t,n);return null!=i&&r&&(i=r(i)),i}):null}function E(t,n){return t.t-n.t}function T(n,r,e,i,o){var u,a="@"===e[0],l="#"===e[0],f=M[e],s=m;switch(a?(u=e.substr(1),e=u.replace(F,P)):l&&(e=e.substr(1)),t(f)){case"function":if(s=f(i,o,R,I,e,a,r,n),l)return s;break;case"string":s=q(i,B(f));break;case"object":if((s=q(i,B(f.i),f.f))&&"function"==typeof f.u)return f.u(r,s,e,a,n)}return s?function(t,n,r){var e=arguments.length>3&&void 0!==arguments[3]&&arguments[3];if(e)return t instanceof j?function(e){return t.style(n,r(e))}:function(e){return t.style[n]=r(e)};if(Array.isArray(n)){var i=n.length;return function(e){var o=r(e);if(null==o)for(var u=0;u<i;u++)t[u].removeAttribute(n);else for(var a=0;a<i;a++)t[a].setAttribute(n,o)}}return function(e){var i=r(e);null==i?t.removeAttribute(n):t.setAttribute(n,i)}}(r,e,s,a):null}function N(n,r,e,i){if(!i||"object"!==t(i))return null;var o=null,u=null;return Array.isArray(i)?u=function(t){if(!t||!t.length)return null;for(var n=0;n<t.length;n++)t[n].e&&(t[n].e=I(t[n].e));return t.sort(E)}(i):(u=i.keys,o=i.data||null),u?T(n,r,e,u,o):null}function C(t,n,r){if(!r)return null;var e=[];for(var i in r)if(r.hasOwnProperty(i)){var o=N(t,n,i,r[i]);o&&e.push(o)}return e.length?e:null}function z(t,n){if(!n.duration||n.duration<0)return null;var r=function(t,n){if(!n)return null;var r=[];if(Array.isArray(n))for(var e=n.length,i=0;i<e;i++){var o=n[i];if(2===o.length){var u=null;if("string"==typeof o[0])u=t.getElementById(o[0]);else if(Array.isArray(o[0])){u=[];for(var a=0;a<o[0].length;a++)if("string"==typeof o[0][a]){var l=t.getElementById(o[0][a]);l&&u.push(l)}u=u.length?1===u.length?u[0]:new j(u):null}if(u){var f=C(t,u,o[1]);f&&(r=r.concat(f))}}}else for(var s in n)if(n.hasOwnProperty(s)){var c=t.getElementById(s);if(c){var h=C(t,c,n[s]);h&&(r=r.concat(h))}}return r.length?r:null}(t,n.elements);return r?function(t,n){var r=arguments.length>2&&void 0!==arguments[2]?arguments[2]:1/0,e=arguments.length>3&&void 0!==arguments[3]?arguments[3]:1,i=arguments.length>4&&void 0!==arguments[4]&&arguments[4],o=arguments.length>5&&void 0!==arguments[5]?arguments[5]:1,u=t.length,a=e>0?n:0;i&&r%2==0&&(a=n-a);var l=null;return function(f,s){var c=f%n,h=1+(f-c)/n;s*=e,i&&h%2==0&&(s=-s);var v=!1;if(h>r)c=a,v=!0,-1===o&&(c=e>0?0:n);else if(s<0&&(c=n-c),c===l)return!1;l=c;for(var y=0;y<u;y++)t[y](c);return v}}(r,n.duration,n.iterations||1/0,n.direction||1,!!n.alternate,n.fill||1):null}var L=function(){function t(r,e){var i=arguments.length>2&&void 0!==arguments[2]?arguments[2]:{};n(this,t),this._id=0,this._running=!1,this._rollingBack=!1,this._animations=r,this.duration=e.duration,this.alternate=e.alternate,this.fill=e.fill,this.iterations=e.iterations,this.direction=i.direction||1,this.speed=i.speed||1,this.fps=i.fps||100,this.offset=i.offset||0,this.rollbackStartOffset=0}return e(t,[{key:"_rollback",value:function(){var t=this,n=1/0,r=null;this.rollbackStartOffset=this.offset,this._rollingBack||(this._rollingBack=!0,this._running=!0);this._id=window.requestAnimationFrame((function e(i){if(t._rollingBack){null==r&&(r=i);var o=i-r,u=t.rollbackStartOffset-o,a=Math.round(u*t.speed);if(a>t.duration&&n!=1/0){var l=!!t.alternate&&a/t.duration%2>1,f=a%t.duration;a=(f+=l?t.duration:0)||t.duration}var s=t.fps?1e3/t.fps:0,c=Math.max(0,a);if(c<n-s){t.offset=c,n=c;for(var h=t._animations,v=h.length,y=0;y<v;y++)h[y](c,t.direction)}var d=!1;if(t.iterations>0&&-1===t.fill){var g=t.iterations*t.duration,p=g==a;a=p?0:a,t.offset=p?0:t.offset,d=a>g}a>0&&t.offset>=a&&!d?t._id=window.requestAnimationFrame(e):t.stop()}}))}},{key:"_start",value:function(){var t=this,n=arguments.length>0&&void 0!==arguments[0]?arguments[0]:0,r=-1/0,e=null,i={},o=function o(u){t._running=!0,null==e&&(e=u);var a=Math.round((u-e+n)*t.speed),l=t.fps?1e3/t.fps:0;if(a>r+l&&!t._rollingBack){t.offset=a,r=a;for(var f=t._animations,s=f.length,c=0,h=0;h<s;h++)i[h]?c++:(i[h]=f[h](a,t.direction),i[h]&&c++);if(c===s)return void t._stop()}t._id=window.requestAnimationFrame(o)};this._id=window.requestAnimationFrame(o)}},{key:"_stop",value:function(){this._id&&window.cancelAnimationFrame(this._id),this._running=!1,this._rollingBack=!1}},{key:"play",value:function(){!this._rollingBack&&this._running||(this._rollingBack=!1,this.rollbackStartOffset>this.duration&&(this.offset=this.rollbackStartOffset-(this.rollbackStartOffset-this.offset)%this.duration,this.rollbackStartOffset=0),this._start(this.offset))}},{key:"stop",value:function(){this._stop(),this.offset=0,this.rollbackStartOffset=0;var t=this.direction,n=this._animations;window.requestAnimationFrame((function(){for(var r=0;r<n.length;r++)n[r](0,t)}))}},{key:"reachedToEnd",value:function(){return this.iterations>0&&this.offset>=this.iterations*this.duration}},{key:"restart",value:function(){this._stop(),this.offset=0,this._start()}},{key:"pause",value:function(){this._stop()}},{key:"reverse",value:function(){this.direction=-this.direction}}],[{key:"build",value:function(n,r){return(n=function(t,n){if(M=n,!t||!t.root||!Array.isArray(t.animations))return null;for(var r=document.getElementsByTagName("svg"),e=!1,i=0;i<r.length;i++)if(r[i].id===t.root&&!r[i].svgatorAnimation){(e=r[i]).svgatorAnimation=!0;break}if(!e)return null;var o=t.animations.map((function(t){return z(e,t)})).filter((function(t){return!!t}));return o.length?{element:e,animations:o,animationSettings:t.animationSettings,options:t.options||void 0}:null}(n,r))?{el:n.element,options:n.options||{},player:new t(n.animations,n.animationSettings,n.options)}:null}}]),t}();!function(){for(var t=0,n=["ms","moz","webkit","o"],r=0;r<n.length&&!window.requestAnimationFrame;++r)window.requestAnimationFrame=window[n[r]+"RequestAnimationFrame"],window.cancelAnimationFrame=window[n[r]+"CancelAnimationFrame"]||window[n[r]+"CancelRequestAnimationFrame"];window.requestAnimationFrame||(window.requestAnimationFrame=function(n){var r=Date.now(),e=Math.max(0,16-(r-t)),i=window.setTimeout((function(){n(r+e)}),e);return t=r+e,i},window.cancelAnimationFrame=window.clearTimeout)}();var D=/\.0+$/g;function Q(t){return Number.isInteger(t)?t+"":t.toFixed(6).replace(D,"")}function U(t){var n=arguments.length>1&&void 0!==arguments[1]?arguments[1]:" ";return t&&t.length?t.map(Q).join(n):""}function V(t){return t?null==t.a||t.a>=1?"rgb("+t.r+","+t.g+","+t.b+")":"rgba("+t.r+","+t.g+","+t.b+","+t.a+")":"transparent"}var $={f:null,i:function(t,n,r){return 0===t?n:1===t?r:{x:w(t,n.x,r.x),y:w(t,n.y,r.y)}},u:function(t,n){return function(r){var e=n(r);t.setAttribute("rx",Q(e.x)),t.setAttribute("ry",Q(e.y))}}},G={f:null,i:function(t,n,r){return 0===t?n:1===t?r:{width:w(t,n.width,r.width),height:w(t,n.height,r.height)}},u:function(t,n){return function(r){var e=n(r);t.setAttribute("width",Q(e.width)),t.setAttribute("height",Q(e.height))}}},H=Math.sin,Y=Math.cos,Z=Math.acos,J=Math.asin,K=Math.tan,W=Math.atan2,X=Math.PI/180,tt=180/Math.PI,nt=Math.sqrt,rt=function(){function t(){var r=arguments.length>0&&void 0!==arguments[0]?arguments[0]:1,e=arguments.length>1&&void 0!==arguments[1]?arguments[1]:0,i=arguments.length>2&&void 0!==arguments[2]?arguments[2]:0,o=arguments.length>3&&void 0!==arguments[3]?arguments[3]:1,u=arguments.length>4&&void 0!==arguments[4]?arguments[4]:0,a=arguments.length>5&&void 0!==arguments[5]?arguments[5]:0;n(this,t),this.m=[r,e,i,o,u,a],this.i=null,this.w=null,this.s=null}return e(t,[{key:"determinant",get:function(){var t=this.m;return t[0]*t[3]-t[1]*t[2]}},{key:"isIdentity",get:function(){if(null===this.i){var t=this.m;this.i=1===t[0]&&0===t[1]&&0===t[2]&&1===t[3]&&0===t[4]&&0===t[5]}return this.i}},{key:"point",value:function(t,n){var r=this.m;return{x:r[0]*t+r[2]*n+r[4],y:r[1]*t+r[3]*n+r[5]}}},{key:"translateSelf",value:function(){var t=arguments.length>0&&void 0!==arguments[0]?arguments[0]:0,n=arguments.length>1&&void 0!==arguments[1]?arguments[1]:0;if(!t&&!n)return this;var r=this.m;return r[4]+=r[0]*t+r[2]*n,r[5]+=r[1]*t+r[3]*n,this.w=this.s=this.i=null,this}},{key:"rotateSelf",value:function(){var t=arguments.length>0&&void 0!==arguments[0]?arguments[0]:0;if(t%=360){var n=H(t*=X),r=Y(t),e=this.m,i=e[0],o=e[1];e[0]=i*r+e[2]*n,e[1]=o*r+e[3]*n,e[2]=e[2]*r-i*n,e[3]=e[3]*r-o*n,this.w=this.s=this.i=null}return this}},{key:"scaleSelf",value:function(){var t=arguments.length>0&&void 0!==arguments[0]?arguments[0]:1,n=arguments.length>1&&void 0!==arguments[1]?arguments[1]:1;if(1!==t||1!==n){var r=this.m;r[0]*=t,r[1]*=t,r[2]*=n,r[3]*=n,this.w=this.s=this.i=null}return this}},{key:"skewSelf",value:function(t,n){if(n%=360,(t%=360)||n){var r=this.m,e=r[0],i=r[1],o=r[2],u=r[3];t&&(t=K(t*X),r[2]+=e*t,r[3]+=i*t),n&&(n=K(n*X),r[0]+=o*n,r[1]+=u*n),this.w=this.s=this.i=null}return this}},{key:"resetSelf",value:function(){var t=arguments.length>0&&void 0!==arguments[0]?arguments[0]:1,n=arguments.length>1&&void 0!==arguments[1]?arguments[1]:0,r=arguments.length>2&&void 0!==arguments[2]?arguments[2]:0,e=arguments.length>3&&void 0!==arguments[3]?arguments[3]:1,i=arguments.length>4&&void 0!==arguments[4]?arguments[4]:0,o=arguments.length>5&&void 0!==arguments[5]?arguments[5]:0,u=this.m;return u[0]=t,u[1]=n,u[2]=r,u[3]=e,u[4]=i,u[5]=o,this.w=this.s=this.i=null,this}},{key:"recomposeSelf",value:function(){var t=arguments.length>0&&void 0!==arguments[0]?arguments[0]:null,n=arguments.length>1&&void 0!==arguments[1]?arguments[1]:null,r=arguments.length>2&&void 0!==arguments[2]?arguments[2]:null,e=arguments.length>3&&void 0!==arguments[3]?arguments[3]:null,i=arguments.length>4&&void 0!==arguments[4]?arguments[4]:null;return this.isIdentity||this.resetSelf(),t&&(t.x||t.y)&&this.translateSelf(t.x,t.y),n&&this.rotateSelf(n),r&&(r.x&&this.skewSelf(r.x,0),r.y&&this.skewSelf(0,r.y)),!e||1===e.x&&1===e.y||this.scaleSelf(e.x,e.y),i&&(i.x||i.y)&&this.translateSelf(i.x,i.y),this}},{key:"decompose",value:function(){var t=arguments.length>0&&void 0!==arguments[0]?arguments[0]:0,n=arguments.length>1&&void 0!==arguments[1]?arguments[1]:0,r=this.m,e=r[0]*r[0]+r[1]*r[1],i=[[r[0],r[1]],[r[2],r[3]]],o=nt(e);if(0===o)return{origin:{x:r[4],y:r[5]},translate:{x:t,y:n},scale:{x:0,y:0},skew:{x:0,y:0},rotate:0};i[0][0]/=o,i[0][1]/=o;var u=r[0]*r[3]-r[1]*r[2]<0;u&&(o=-o);var a=i[0][0]*i[1][0]+i[0][1]*i[1][1];i[1][0]-=i[0][0]*a,i[1][1]-=i[0][1]*a;var l=nt(i[1][0]*i[1][0]+i[1][1]*i[1][1]);if(0===l)return{origin:{x:r[4],y:r[5]},translate:{x:t,y:n},scale:{x:o,y:0},skew:{x:0,y:0},rotate:0};i[1][0]/=l,i[1][1]/=l,a/=l;var f=0;return i[1][1]<0?(f=Z(i[1][1])*tt,i[0][1]<0&&(f=360-f)):f=J(i[0][1])*tt,u&&(f=-f),a=W(a,nt(i[0][0]*i[0][0]+i[0][1]*i[0][1]))*tt,u&&(a=-a),{origin:{x:r[4],y:r[5]},translate:{x:t,y:n},scale:{x:o,y:l},skew:{x:a,y:0},rotate:f}}},{key:"toString",value:function(){return null===this.s&&(this.s="matrix("+this.m.map(it).join(" ")+")"),this.s}}]),t}(),et=/\.0+$/;function it(t){return Number.isInteger(t)?t:t.toFixed(14).replace(et,"")}function ot(t,n,r){return t+(n-t)*r}function ut(t,n,r){var e=arguments.length>3&&void 0!==arguments[3]&&arguments[3],i={x:ot(t.x,n.x,r),y:ot(t.y,n.y,r)};return e&&(i.a=at(t,n)),i}function at(t,n){return Math.atan2(n.y-t.y,n.x-t.x)}Object.freeze({M:2,L:2,Z:0,H:1,V:1,C:6,Q:4,T:2,S:4,A:7});var lt={},ft=null;function st(n){var r=function(){if(ft)return ft;if("object"!==("undefined"==typeof document?"undefined":t(document)))return{};var n=document.createElementNS("http://www.w3.org/2000/svg","svg");return n.style.position="absolute",n.style.opacity="0.01",n.style.zIndex="-9999",n.style.left="-9999px",n.style.width="1px",n.style.height="1px",ft={svg:n}}().svg;if(!r)return function(t){return null};var e=document.createElementNS(r.namespaceURI,"path");e.setAttributeNS(null,"d",n),e.setAttributeNS(null,"fill","none"),e.setAttributeNS(null,"stroke","none"),r.appendChild(e);var i=e.getTotalLength();return function(t){var n=e.getPointAtLength(i*t);return{x:n.x,y:n.y}}}function ct(t){return lt[t]?lt[t]:lt[t]=st(t)}function ht(t,n,r,e){if(!t||!e)return!1;var i=["M",t.x,t.y];if(n&&r&&(i.push("C"),i.push(n.x),i.push(n.y),i.push(r.x),i.push(r.y)),n?!r:r){var o=n||r;i.push("Q"),i.push(o.x),i.push(o.y)}return n||r||i.push("L"),i.push(e.x),i.push(e.y),i.join(" ")}function vt(t,n,r,e){var i=arguments.length>4&&void 0!==arguments[4]?arguments[4]:1,o=ht(t,n,r,e),u=ct(o);try{return u(i)}catch(t){return null}}function yt(t,n,r,e){var i=1-e;return i*i*t+2*i*e*n+e*e*r}function dt(t,n,r,e){return 2*(1-e)*(n-t)+2*e*(r-n)}function gt(t,n,r,e){var i=arguments.length>4&&void 0!==arguments[4]&&arguments[4],o=vt(t,n,null,r,e);return o||(o={x:yt(t.x,n.x,r.x,e),y:yt(t.y,n.y,r.y,e)}),i&&(o.a=pt(t,n,r,e)),o}function pt(t,n,r,e){return Math.atan2(dt(t.y,n.y,r.y,e),dt(t.x,n.x,r.x,e))}function mt(t,n,r,e,i){var o=i*i;return i*o*(e-t+3*(n-r))+3*o*(t+r-2*n)+3*i*(n-t)+t}function bt(t,n,r,e,i){var o=1-i;return 3*(o*o*(n-t)+2*o*i*(r-n)+i*i*(e-r))}function wt(t,n,r,e,i){var o=arguments.length>5&&void 0!==arguments[5]&&arguments[5],u=vt(t,n,r,e,i);return u||(u={x:mt(t.x,n.x,r.x,e.x,i),y:mt(t.y,n.y,r.y,e.y,i)}),o&&(u.a=xt(t,n,r,e,i)),u}function xt(t,n,r,e,i){return Math.atan2(bt(t.y,n.y,r.y,e.y,i),bt(t.x,n.x,r.x,e.x,i))}function kt(t,n,r){var e=arguments.length>3&&void 0!==arguments[3]&&arguments[3];if(_t(n)){if(St(r))return gt(n,r.start,r,t,e)}else if(_t(r)){if(n.end)return gt(n,n.end,r,t,e)}else{if(n.end)return r.start?wt(n,n.end,r.start,r,t,e):gt(n,n.end,r,t,e);if(r.start)return gt(n,r.start,r,t,e)}return ut(n,r,t,e)}function At(t,n,r){var e=kt(t,n,r,!0);return e.a=function(t){var n=arguments.length>1&&void 0!==arguments[1]&&arguments[1];return n?t+Math.PI:t}(e.a)/p,e}function _t(t){return!t.type||"corner"===t.type}function St(t){return null!=t.start&&!_t(t)}var Ot=new rt;var Mt={f:Q,i:b},jt={f:Q,i:function(t,n,r){var e=b(t,n,r);return e<=0?0:e>=1?1:e}};function Ft(t,n,r,e,i,o,u,a){return n=function(t,n,r){for(var e,i,o,u=t.length-1,a={},l=0;l<=u;l++)(e=t[l]).e&&(e.e=n(e.e)),e.v&&"g"===(i=e.v).t&&i.r&&(o=r.getElementById(i.r))&&(a[i.r]=o.querySelectorAll("stop"));return a}(t,e,a),function(e){var i,o=r(e,t,Pt);return o?"c"===o.t?V(o.v):"g"===o.t?(n[o.r]&&function(t,n){for(var r=0,e=t.length;r<e;r++)t[r].setAttribute("stop-color",V(n[r]))}(n[o.r],o.v),(i=o.r)?"url(#"+i+")":"none"):"none":"none"}}function Pt(t,n,r){if(0===t)return n;if(1===t)return r;if(n&&r){var e=n.t;if(e===r.t)switch(n.t){case"c":return{t:e,v:A(t,n.v,r.v)};case"g":if(n.r===r.r)return{t:e,v:_(t,n.v,r.v),r:n.r}}}return m(t,n,r)}var Bt={fill:Ft,"fill-opacity":jt,stroke:Ft,"stroke-opacity":jt,"stroke-width":Mt,"stroke-dashoffset":{f:Q,i:b},"stroke-dasharray":{f:function(t){var n=arguments.length>1&&void 0!==arguments[1]?arguments[1]:" ";return t&&t.length>0&&(t=t.map((function(t){return Math.floor(1e4*t)/1e4}))),U(t,n)},i:function(t,n,r){var e,i,o,u=n.length,a=r.length;if(u!==a)if(0===u)n=S(u=a,0);else if(0===a)a=u,r=S(u,0);else{var l=(o=(e=u)*(i=a)/function(t,n){for(var r;n;)r=n,n=t%n,t=r;return t||1}(e,i))<0?-o:o;n=O(n,Math.floor(l/u)),r=O(r,Math.floor(l/a)),u=a=l}for(var f=[],s=0;s<u;s++)f.push(g(w(t,n[s],r[s]),6));return f}},opacity:jt,transform:function(n,r,e,i){if(!(n=function(n,r){if(!n||"object"!==t(n))return null;var e=!1;for(var i in n)n.hasOwnProperty(i)&&(n[i]&&n[i].length?(n[i].forEach((function(t){t.e&&(t.e=r(t.e))})),e=!0):delete n[i]);return e?n:null}(n,i)))return null;var o=function(t,i,o){var u=arguments.length>3&&void 0!==arguments[3]?arguments[3]:null;return n[t]?e(i,n[t],o):r&&r[t]?r[t]:u};return r&&r.a&&n.o?function(t){var r=e(t,n.o,At);return Ot.recomposeSelf(r,o("r",t,b,0)+r.a,o("k",t,x),o("s",t,x),o("t",t,x)).toString()}:function(t){return Ot.recomposeSelf(o("o",t,kt,null),o("r",t,b,0),o("k",t,x),o("s",t,x),o("t",t,x)).toString()}},r:Mt,"#size":G,"#radius":$,_:function(t,n){if(Array.isArray(t))for(var r=0;r<t.length;r++)this[t[r]]=n;else this[t]=n}};return function(t){!function(t,n){if("function"!=typeof n&&null!==n)throw new TypeError("Super expression must either be null or a function");t.prototype=Object.create(n&&n.prototype,{constructor:{value:t,writable:!0,configurable:!0}}),n&&o(t,n)}(u,t);var r=a(u);function u(){return n(this,u),r.apply(this,arguments)}return e(u,null,[{key:"build",value:function(t){var n=l(i(u),"build",this).call(this,t,Bt);n.el,n.options;var r=n.player;return function(t){t.play()}(r),r}}]),u}(L)}));
__SVGATOR_PLAYER__.build({"root":"friends","animations":[{"duration":2000,"direction":1,"iterations":0,"fill":1,"alternate":false,"elements":{"friends-medium-treetop":{"transform":{"data":{"o":{"x":90.42244243,"y":547.987,"type":"corner"},"s":{"x":0.9981347841259199,"y":1},"t":{"x":-0.004774033417648926,"y":-184.48899999999998}},"keys":{"r":[{"t":0,"v":0.42},{"t":500,"v":1.1610401836757098},{"t":1600,"v":0},{"t":2000,"v":0.42}]}}},"friends-medium-tree-trunk":{"transform":{"data":{"o":{"x":97.894127165,"y":657.30760645,"type":"corner"},"s":{"x":0.8855125150312815,"y":1.0278052302409142},"t":{"x":-97.894127165,"y":-657.30760645}},"keys":{"r":[{"t":0,"v":0.45},{"t":500,"v":1.2342701737901525},{"t":1600,"v":0},{"t":2000,"v":0.45}]}}},"friends-biggest-treetop":{"transform":{"data":{"o":{"x":303.92542785,"y":504.916,"type":"corner"},"s":{"x":1.019144219701763,"y":1},"t":{"x":0.6395721499999922,"y":-252.458}},"keys":{"r":[{"t":0,"v":0.49},{"t":100,"v":0.6528992622487408},{"t":1500,"v":0},{"t":2000,"v":0.49}]}}},"friends-biggest-tree-trunk":{"transform":{"data":{"o":{"x":321.79825,"y":632.73289941,"type":"corner"},"t":{"x":-321.79825,"y":-632.73289941}},"keys":{"r":[{"t":0,"v":0.46},{"t":100,"v":0.6110908623491313},{"t":1500,"v":0},{"t":2000,"v":0.46}]}}},"friends-smallest-treetop":{"transform":{"data":{"o":{"x":201.491,"y":603.2931,"type":"corner"},"s":{"x":1.0236896203925296,"y":1},"t":{"x":0,"y":-94.32509999999996}},"keys":{"r":[{"t":0,"v":0},{"t":1200,"v":1.41998676987963},{"t":2000,"v":0}]}}},"friends-smallest-tree-trunk":{"transform":{"data":{"o":{"x":201.491,"y":644.327,"type":"corner"},"t":{"x":-408.34400000000005,"y":-719.7285}},"keys":{"r":[{"t":400,"v":0},{"t":1200,"v":1.093941864347865},{"t":2000,"v":0}]}}},"friends-right-leg":{"transform":{"data":{"o":{"x":501.30733936,"y":670.89,"type":"corner"},"t":{"x":-708.1603393600001,"y":-746.2914999999999}},"keys":{"r":[{"t":300,"v":0},{"t":1200,"v":0.21918455244613122},{"t":2000,"v":0}]}}},"friends-hand":{"transform":{"data":{"o":{"x":398.841366,"y":625.45046,"type":"corner"},"t":{"x":-605.694366,"y":-700.8519600000001}},"keys":{"r":[{"t":0,"v":0},{"t":500,"v":2.356275914909944},{"t":1200,"v":-4.390530293974029},{"t":2000,"v":0}]}}},"friends-dark-ear":{"transform":{"data":{"o":{"x":333.30287,"y":610.41905664,"type":"corner"},"t":{"x":-540.1558699999998,"y":-685.82055664}},"keys":{"r":[{"t":0,"v":0},{"t":900,"v":-1.7483404690287088},{"t":1700,"v":0}]}}},"friends-bright-ear":{"transform":{"data":{"o":{"x":333.30287,"y":615.6296,"type":"corner"},"t":{"x":-540.1558700000003,"y":-691.0311}},"keys":{"r":[{"t":0,"v":0},{"t":700,"v":-2.404272604079444},{"t":1500,"v":0}]}}},"friends-tail":{"transform":{"data":{"o":{"x":160.73009775,"y":691.29240869,"type":"corner"},"s":{"x":1,"y":0.9504633332013604},"t":{"x":-159.25565352742618,"y":-695.1181783644355}},"keys":{"r":[{"t":0,"v":-5.83},{"t":500,"v":-9.80621310492372},{"t":1500,"v":6.117188214457278},{"t":2000,"v":-5.83}]}}}}}],"options":{"start":"load","hover":"freeze","click":"freeze","scroll":25,"font":"embed","exportedIds":"names","title":"friends"},"animationSettings":{"duration":2000,"direction":1,"iterations":0,"fill":1,"alternate":false}})]]></script></svg>