<svg width="30" height="8" viewBox="0 0 30 8" fill="none" xmlns="http://www.w3.org/2000/svg">
<path d="M4 0C3.20888 0 2.43552 0.234596 1.77772 0.674122C1.11992 1.11365 0.607234 1.73836 0.304484 2.46927C0.00173312 3.20017 -0.0774802 4.00444 0.0768607 4.78036C0.231202 5.55629 0.612165 6.26902 1.17157 6.82843C1.73098 7.38784 2.44372 7.7688 3.21964 7.92314C3.99556 8.07748 4.79983 7.99827 5.53074 7.69552C6.26164 7.39277 6.88635 6.88008 7.32588 6.22228C7.76541 5.56448 8 4.79113 8 4C8 2.93913 7.57857 1.92172 6.82843 1.17157C6.07828 0.421427 5.06087 0 4 0ZM4 6C3.60444 6 3.21776 5.8827 2.88886 5.66294C2.55996 5.44318 2.30362 5.13082 2.15224 4.76537C2.00087 4.39992 1.96126 3.99778 2.03843 3.60982C2.1156 3.22186 2.30608 2.86549 2.58579 2.58579C2.86549 2.30608 3.22186 2.1156 3.60982 2.03843C3.99778 1.96126 4.39992 2.00087 4.76537 2.15224C5.13082 2.30362 5.44318 2.55996 5.66294 2.88886C5.8827 3.21776 6 3.60444 6 4C6 4.53043 5.78929 5.03914 5.41422 5.41421C5.03914 5.78929 4.53044 6 4 6ZM15 0C14.2089 0 13.4355 0.234596 12.7777 0.674122C12.1199 1.11365 11.6072 1.73836 11.3045 2.46927C11.0017 3.20017 10.9225 4.00444 11.0769 4.78036C11.2312 5.55629 11.6122 6.26902 12.1716 6.82843C12.731 7.38784 13.4437 7.7688 14.2196 7.92314C14.9956 8.07748 15.7998 7.99827 16.5307 7.69552C17.2616 7.39277 17.8864 6.88008 18.3259 6.22228C18.7654 5.56448 19 4.79113 19 4C19 2.93913 18.5786 1.92172 17.8284 1.17157C17.0783 0.421427 16.0609 0 15 0ZM15 6C14.6044 6 14.2178 5.8827 13.8889 5.66294C13.56 5.44318 13.3036 5.13082 13.1522 4.76537C13.0009 4.39992 12.9613 3.99778 13.0384 3.60982C13.1156 3.22186 13.3061 2.86549 13.5858 2.58579C13.8655 2.30608 14.2219 2.1156 14.6098 2.03843C14.9978 1.96126 15.3999 2.00087 15.7654 2.15224C16.1308 2.30362 16.4432 2.55996 16.6629 2.88886C16.8827 3.21776 17 3.60444 17 4C17 4.53043 16.7893 5.03914 16.4142 5.41421C16.0391 5.78929 15.5304 6 15 6ZM26 0C25.2089 0 24.4355 0.234596 23.7777 0.674122C23.1199 1.11365 22.6072 1.73836 22.3045 2.46927C22.0017 3.20017 21.9225 4.00444 22.0769 4.78036C22.2312 5.55629 22.6122 6.26902 23.1716 6.82843C23.731 7.38784 24.4437 7.7688 25.2196 7.92314C25.9956 8.07748 26.7998 7.99827 27.5307 7.69552C28.2616 7.39277 28.8864 6.88008 29.3259 6.22228C29.7654 5.56448 30 4.79113 30 4C30 2.93913 29.5786 1.92172 28.8284 1.17157C28.0783 0.421427 27.0609 0 26 0ZM26 6C25.6044 6 25.2178 5.8827 24.8889 5.66294C24.56 5.44318 24.3036 5.13082 24.1522 4.76537C24.0009 4.39992 23.9613 3.99778 24.0384 3.60982C24.1156 3.22186 24.3061 2.86549 24.5858 2.58579C24.8655 2.30608 25.2219 2.1156 25.6098 2.03843C25.9978 1.96126 26.3999 2.00087 26.7654 2.15224C27.1308 2.30362 27.4432 2.55996 27.6629 2.88886C27.8827 3.21776 28 3.60444 28 4C28 4.53043 27.7893 5.03914 27.4142 5.41421C27.0391 5.78929 26.5304 6 26 6Z" fill="white"/>
</svg>
