<svg width="24" height="24" viewBox="0 0 24 24" fill="none" xmlns="http://www.w3.org/2000/svg">
<path d="M12.872 13.191H18V8.06401C17.992 6.92901 17.329 6.65601 16.527 7.45901L15.373 8.61701C14.3563 7.8181 13.1001 7.38482 11.807 7.38701C10.257 7.38701 8.79803 7.99101 7.70303 9.08801C7.16116 9.62473 6.73151 10.2639 6.43913 10.9683C6.14676 11.6728 5.99749 12.4283 6.00003 13.191C6.00003 14.744 6.60403 16.203 7.70103 17.298C8.23892 17.8391 8.87878 18.2681 9.58357 18.5602C10.2884 18.8524 11.0441 19.0019 11.807 19C13.357 19 14.816 18.395 15.913 17.297C16.209 17 16.471 16.676 16.693 16.332C16.8595 16.0729 16.9161 15.7583 16.8506 15.4574C16.785 15.1565 16.6026 14.8939 16.3435 14.7275C16.0844 14.5611 15.7698 14.5044 15.4689 14.57C15.168 14.6355 14.9055 14.8179 14.739 15.077C14.606 15.284 14.447 15.477 14.271 15.657C13.9481 15.9813 13.564 16.2385 13.1411 16.4135C12.7182 16.5886 12.2648 16.6782 11.807 16.677C11.3493 16.6784 10.8958 16.589 10.4728 16.4139C10.0499 16.2388 9.66585 15.9816 9.34303 15.657C9.01862 15.3339 8.76145 14.9497 8.58638 14.5266C8.4113 14.1035 8.3218 13.6499 8.32303 13.192C8.32303 12.262 8.68503 11.387 9.34303 10.731C9.66596 10.4065 10.05 10.1492 10.4729 9.97401C10.8958 9.79876 11.3492 9.70904 11.807 9.71001C12.495 9.71001 13.153 9.91101 13.716 10.282L12.268 11.733C11.465 12.535 11.738 13.191 12.872 13.191Z" fill="#413246"/>
</svg>
